<?xml version="1.0" encoding="UTF-8" standalone="no"?>
<!DOCTYPE svg PUBLIC "-//W3C//DTD SVG 1.1//EN"
 "http://www.w3.org/Graphics/SVG/1.1/DTD/svg11.dtd">
<!-- Generated by graphviz version 2.43.0 (0)
 -->
<!-- Title: %3 Pages: 1 -->
<svg width="979pt" height="338pt"
 viewBox="0.00 0.00 979.37 337.50" xmlns="http://www.w3.org/2000/svg" xmlns:xlink="http://www.w3.org/1999/xlink">
<g id="graph0" class="graph" transform="scale(1 1) rotate(0) translate(4 333.5)">
<title>%3</title>
<polygon fill="white" stroke="transparent" points="-4,4 -4,-333.5 975.37,-333.5 975.37,4 -4,4"/>
<!-- bdata -->
<g id="node1" class="node">
<title>bdata</title>
<polygon fill="none" stroke="black" points="0,-86.5 0,-201.5 96,-201.5 96,-86.5 0,-86.5"/>
<text text-anchor="middle" x="48" y="-186.3" font-family="Times,serif" font-size="14.00">BurstData</text>
<polyline fill="none" stroke="black" points="0,-178.5 96,-178.5 "/>
<text text-anchor="middle" x="48" y="-163.3" font-family="Times,serif" font-size="14.00">models</text>
<polyline fill="none" stroke="black" points="0,-155.5 96,-155.5 "/>
<text text-anchor="middle" x="48" y="-140.3" font-family="Times,serif" font-size="14.00">div_models</text>
<polyline fill="none" stroke="black" points="0,-132.5 96,-132.5 "/>
<text text-anchor="middle" x="48" y="-117.3" font-family="Times,serif" font-size="14.00">times</text>
<polyline fill="none" stroke="black" points="0,-109.5 96,-109.5 "/>
<text text-anchor="middle" x="48" y="-94.3" font-family="Times,serif" font-size="14.00">nanos</text>
</g>
<!-- mdls -->
<g id="node2" class="node">
<title>mdls</title>
<polygon fill="none" stroke="black" points="434.56,-192.5 434.56,-261.5 529.56,-261.5 529.56,-192.5 434.56,-192.5"/>
<text text-anchor="middle" x="482.06" y="-246.3" font-family="Times,serif" font-size="14.00">H2MM_list</text>
<polyline fill="none" stroke="black" points="434.56,-238.5 529.56,-238.5 "/>
<text text-anchor="middle" x="482.06" y="-223.3" font-family="Times,serif" font-size="14.00">opts</text>
<polyline fill="none" stroke="black" points="434.56,-215.5 529.56,-215.5 "/>
<text text-anchor="middle" x="482.06" y="-200.3" font-family="Times,serif" font-size="14.00">index</text>
</g>
<!-- bdata&#45;&gt;mdls -->
<g id="edge3" class="edge">
<title>bdata:f0&#45;&gt;mdls:f0</title>
<path fill="none" stroke="black" d="M96,-167C121.96,-167 109.4,-200.23 132,-213 246.96,-277.94 296.55,-251.44 424.4,-250.06"/>
<polygon fill="black" stroke="black" points="424.57,-253.55 434.56,-250 424.54,-246.55 424.57,-253.55"/>
</g>
<!-- dvdct -->
<g id="node5" class="node">
<title>dvdct</title>
<polygon fill="none" stroke="black" points="193.28,-111 193.28,-203 337.28,-203 337.28,-111 193.28,-111"/>
<text text-anchor="middle" x="265.28" y="-187.8" font-family="Times,serif" font-size="14.00">[div_models](dict)</text>
<polyline fill="none" stroke="black" points="193.28,-180 337.28,-180 "/>
<text text-anchor="middle" x="265.28" y="-164.8" font-family="Times,serif" font-size="14.00">Scheme 1</text>
<polyline fill="none" stroke="black" points="193.28,-157 337.28,-157 "/>
<text text-anchor="middle" x="265.28" y="-141.8" font-family="Times,serif" font-size="14.00">Scheme 2</text>
<polyline fill="none" stroke="black" points="193.28,-134 337.28,-134 "/>
<text text-anchor="middle" x="265.28" y="-118.8" font-family="Times,serif" font-size="14.00">...</text>
</g>
<!-- bdata&#45;&gt;dvdct -->
<g id="edge4" class="edge">
<title>bdata:f1&#45;&gt;dvdct:f0</title>
<path fill="none" stroke="black" d="M96,-144C140.08,-144 144.07,-184.79 181.89,-191.17"/>
<polygon fill="black" stroke="black" points="182.03,-194.69 192.28,-192 182.59,-187.71 182.03,-194.69"/>
</g>
<!-- macro -->
<g id="node9" class="node">
<title>macro</title>
<polygon fill="none" stroke="black" points="374.36,-66.54 374.36,-81.46 310.46,-92 220.09,-92 156.2,-81.46 156.2,-66.54 220.09,-56 310.46,-56 374.36,-66.54"/>
<text text-anchor="middle" x="265.28" y="-70.3" font-family="Times,serif" font-size="14.00">photon macrotimes</text>
</g>
<!-- bdata&#45;&gt;macro -->
<g id="edge1" class="edge">
<title>bdata:f2&#45;&gt;macro</title>
<path fill="none" stroke="black" d="M96,-121C114.09,-121 114.99,-108.15 132,-102 146.3,-96.83 161.84,-92.48 177.08,-88.87"/>
<polygon fill="black" stroke="black" points="178.05,-92.23 187.02,-86.6 176.5,-85.41 178.05,-92.23"/>
</g>
<!-- nano -->
<g id="node10" class="node">
<title>nano</title>
<polygon fill="none" stroke="black" points="265.28,-38 132.22,-20 265.28,-2 398.33,-20 265.28,-38"/>
<text text-anchor="middle" x="265.28" y="-16.3" font-family="Times,serif" font-size="14.00">photon nanotimes</text>
</g>
<!-- bdata&#45;&gt;nano -->
<g id="edge2" class="edge">
<title>bdata:f3&#45;&gt;nano</title>
<path fill="none" stroke="black" d="M96,-98C123.74,-98 108.77,-62.18 132,-47 144.12,-39.08 158.08,-33.42 172.3,-29.37"/>
<polygon fill="black" stroke="black" points="173.36,-32.71 182.17,-26.82 171.61,-25.94 173.36,-32.71"/>
</g>
<!-- mdlst -->
<g id="node3" class="node">
<title>mdlst</title>
<polygon fill="none" stroke="black" points="646.46,-237 646.46,-329 737.46,-329 737.46,-237 646.46,-237"/>
<text text-anchor="middle" x="691.96" y="-313.8" font-family="Times,serif" font-size="14.00">[opts](list)</text>
<polyline fill="none" stroke="black" points="646.46,-306 737.46,-306 "/>
<text text-anchor="middle" x="691.96" y="-290.8" font-family="Times,serif" font-size="14.00">1 State</text>
<polyline fill="none" stroke="black" points="646.46,-283 737.46,-283 "/>
<text text-anchor="middle" x="691.96" y="-267.8" font-family="Times,serif" font-size="14.00">2 State</text>
<polyline fill="none" stroke="black" points="646.46,-260 737.46,-260 "/>
<text text-anchor="middle" x="691.96" y="-244.8" font-family="Times,serif" font-size="14.00">...</text>
</g>
<!-- mdls&#45;&gt;mdlst -->
<g id="edge5" class="edge">
<title>mdls:f1&#45;&gt;mdlst:f0</title>
<path fill="none" stroke="black" d="M529.56,-227C591.3,-227 581.07,-308.32 634.94,-317.21"/>
<polygon fill="black" stroke="black" points="634.72,-320.71 644.96,-318 635.27,-313.73 634.72,-320.71"/>
</g>
<!-- midx -->
<g id="node11" class="node">
<title>midx</title>
<polygon fill="none" stroke="black" points="803.27,-192.54 803.27,-207.46 738.07,-218 645.86,-218 580.66,-207.46 580.66,-192.54 645.86,-182 738.07,-182 803.27,-192.54"/>
<text text-anchor="middle" x="691.96" y="-196.3" font-family="Times,serif" font-size="14.00">base photon indices</text>
</g>
<!-- mdls&#45;&gt;midx -->
<g id="edge6" class="edge">
<title>mdls:f2&#45;&gt;midx</title>
<path fill="none" stroke="black" d="M529.56,-204C542.86,-204 556.79,-203.86 570.64,-203.64"/>
<polygon fill="black" stroke="black" points="570.77,-207.14 580.7,-203.46 570.64,-200.14 570.77,-207.14"/>
</g>
<!-- mdlrs -->
<g id="node4" class="node">
<title>mdlrs</title>
<polygon fill="none" stroke="black" points="854.37,-191.5 854.37,-306.5 971.37,-306.5 971.37,-191.5 854.37,-191.5"/>
<text text-anchor="middle" x="912.87" y="-291.3" font-family="Times,serif" font-size="14.00">H2MM_result</text>
<polyline fill="none" stroke="black" points="854.37,-283.5 971.37,-283.5 "/>
<text text-anchor="middle" x="912.87" y="-268.3" font-family="Times,serif" font-size="14.00">H2MM model</text>
<polyline fill="none" stroke="black" points="854.37,-260.5 971.37,-260.5 "/>
<text text-anchor="middle" x="912.87" y="-245.3" font-family="Times,serif" font-size="14.00">state path</text>
<polyline fill="none" stroke="black" points="854.37,-237.5 971.37,-237.5 "/>
<text text-anchor="middle" x="912.87" y="-222.3" font-family="Times,serif" font-size="14.00">dwell analysis</text>
<polyline fill="none" stroke="black" points="854.37,-214.5 971.37,-214.5 "/>
<text text-anchor="middle" x="912.87" y="-199.3" font-family="Times,serif" font-size="14.00">error analysis</text>
</g>
<!-- mdlst&#45;&gt;mdlrs -->
<g id="edge7" class="edge">
<title>mdlst:f1&#45;&gt;mdlrs:f0</title>
<path fill="none" stroke="black" d="M738.96,-295C786.75,-295 801.15,-295 844.37,-295"/>
<polygon fill="black" stroke="black" points="844.37,-298.5 854.37,-295 844.37,-291.5 844.37,-298.5"/>
</g>
<!-- dvls -->
<g id="node6" class="node">
<title>dvls</title>
<polygon fill="none" stroke="black" points="434.56,-104.5 434.56,-173.5 529.56,-173.5 529.56,-104.5 434.56,-104.5"/>
<text text-anchor="middle" x="482.06" y="-158.3" font-family="Times,serif" font-size="14.00">H2MM_list</text>
<polyline fill="none" stroke="black" points="434.56,-150.5 529.56,-150.5 "/>
<text text-anchor="middle" x="482.06" y="-135.3" font-family="Times,serif" font-size="14.00">opts</text>
<polyline fill="none" stroke="black" points="434.56,-127.5 529.56,-127.5 "/>
<text text-anchor="middle" x="482.06" y="-112.3" font-family="Times,serif" font-size="14.00">index</text>
</g>
<!-- dvdct&#45;&gt;dvls -->
<g id="edge8" class="edge">
<title>dvdct:f1&#45;&gt;dvls:f0</title>
<path fill="none" stroke="black" d="M338.28,-169C377.49,-169 389.61,-163.15 424.17,-162.15"/>
<polygon fill="black" stroke="black" points="424.61,-165.64 434.56,-162 424.51,-158.64 424.61,-165.64"/>
</g>
<!-- dvlst -->
<g id="node7" class="node">
<title>dvlst</title>
<polygon fill="none" stroke="black" points="646.46,-63 646.46,-155 737.46,-155 737.46,-63 646.46,-63"/>
<text text-anchor="middle" x="691.96" y="-139.8" font-family="Times,serif" font-size="14.00">[opts](list)</text>
<polyline fill="none" stroke="black" points="646.46,-132 737.46,-132 "/>
<text text-anchor="middle" x="691.96" y="-116.8" font-family="Times,serif" font-size="14.00">1 State</text>
<polyline fill="none" stroke="black" points="646.46,-109 737.46,-109 "/>
<text text-anchor="middle" x="691.96" y="-93.8" font-family="Times,serif" font-size="14.00">2 State</text>
<polyline fill="none" stroke="black" points="646.46,-86 737.46,-86 "/>
<text text-anchor="middle" x="691.96" y="-70.8" font-family="Times,serif" font-size="14.00">...</text>
</g>
<!-- dvls&#45;&gt;dvlst -->
<g id="edge9" class="edge">
<title>dvls:f1&#45;&gt;dvlst:f0</title>
<path fill="none" stroke="black" d="M529.56,-139C577.39,-139 591.7,-143.34 634.95,-143.93"/>
<polygon fill="black" stroke="black" points="634.94,-147.43 644.96,-144 634.99,-140.43 634.94,-147.43"/>
</g>
<!-- didx -->
<g id="node12" class="node">
<title>didx</title>
<polygon fill="none" stroke="black" points="814.28,-14.54 814.28,-29.46 742.63,-40 641.3,-40 569.64,-29.46 569.64,-14.54 641.3,-4 742.63,-4 814.28,-14.54"/>
<polygon fill="none" stroke="black" points="818.28,-11.09 818.28,-32.91 742.92,-44 641.01,-44 565.65,-32.91 565.65,-11.09 641.01,0 742.92,0 818.28,-11.09"/>
<text text-anchor="middle" x="691.96" y="-18.3" font-family="Times,serif" font-size="14.00">divisor photon indices</text>
</g>
<!-- dvls&#45;&gt;didx -->
<g id="edge10" class="edge">
<title>dvls:f2&#45;&gt;didx</title>
<path fill="none" stroke="black" d="M529.56,-116C561.42,-116 540.14,-73.21 565.56,-54 571.98,-49.14 579.07,-45.02 586.51,-41.51"/>
<polygon fill="black" stroke="black" points="588.28,-44.56 596.09,-37.4 585.52,-38.13 588.28,-44.56"/>
</g>
<!-- dvlrs -->
<g id="node8" class="node">
<title>dvlrs</title>
<polygon fill="none" stroke="black" points="854.37,-17.5 854.37,-132.5 971.37,-132.5 971.37,-17.5 854.37,-17.5"/>
<text text-anchor="middle" x="912.87" y="-117.3" font-family="Times,serif" font-size="14.00">H2MM_result</text>
<polyline fill="none" stroke="black" points="854.37,-109.5 971.37,-109.5 "/>
<text text-anchor="middle" x="912.87" y="-94.3" font-family="Times,serif" font-size="14.00">H2MM model</text>
<polyline fill="none" stroke="black" points="854.37,-86.5 971.37,-86.5 "/>
<text text-anchor="middle" x="912.87" y="-71.3" font-family="Times,serif" font-size="14.00">state path</text>
<polyline fill="none" stroke="black" points="854.37,-63.5 971.37,-63.5 "/>
<text text-anchor="middle" x="912.87" y="-48.3" font-family="Times,serif" font-size="14.00">dwell analysis</text>
<polyline fill="none" stroke="black" points="854.37,-40.5 971.37,-40.5 "/>
<text text-anchor="middle" x="912.87" y="-25.3" font-family="Times,serif" font-size="14.00">error analysis</text>
</g>
<!-- dvlst&#45;&gt;dvlrs -->
<g id="edge11" class="edge">
<title>dvlst:f1&#45;&gt;dvlrs:f0</title>
<path fill="none" stroke="black" d="M738.96,-121C786.75,-121 801.15,-121 844.37,-121"/>
<polygon fill="black" stroke="black" points="844.37,-124.5 854.37,-121 844.37,-117.5 844.37,-124.5"/>
</g>
</g>
</svg>
