<?xml version="1.0" encoding="UTF-8" standalone="no"?>
<!DOCTYPE svg PUBLIC "-//W3C//DTD SVG 1.1//EN"
 "http://www.w3.org/Graphics/SVG/1.1/DTD/svg11.dtd">
<!-- Generated by graphviz version 2.43.0 (0)
 -->
<!-- Title: G Pages: 1 -->
<svg width="459pt" height="151pt"
 viewBox="0.00 0.00 459.00 151.00" xmlns="http://www.w3.org/2000/svg" xmlns:xlink="http://www.w3.org/1999/xlink">
<g id="graph0" class="graph" transform="scale(1 1) rotate(0) translate(4 147)">
<title>G</title>
<polygon fill="white" stroke="transparent" points="-4,4 -4,-147 455,-147 455,4 -4,4"/>
<!-- burst0 -->
<g id="node1" class="node">
<title>burst0</title>
<polygon fill="none" stroke="black" points="0,-98.5 0,-142.5 224,-142.5 224,-98.5 0,-98.5"/>
<polygon fill="none" stroke="black" points="9,-120.5 9,-137.5 215,-137.5 215,-120.5 9,-120.5"/>
<text text-anchor="start" x="85" y="-125.3" font-family="Times,serif" font-size="14.00">Burst 0</text>
<polygon fill="none" stroke="black" points="9,-103.5 9,-120.5 95,-120.5 95,-103.5 9,-103.5"/>
<text text-anchor="start" x="10" y="-108.3" font-family="Times,serif" font-size="14.00">Dwell State</text>
<polygon fill="green" stroke="transparent" points="95,-103.5 95,-120.5 135,-120.5 135,-103.5 95,-103.5"/>
<polygon fill="none" stroke="black" points="95,-103.5 95,-120.5 135,-120.5 135,-103.5 95,-103.5"/>
<text text-anchor="start" x="110" y="-108.3" font-family="Times,serif" font-size="14.00">0</text>
<polygon fill="red" stroke="transparent" points="135,-103.5 135,-120.5 175,-120.5 175,-103.5 135,-103.5"/>
<polygon fill="none" stroke="black" points="135,-103.5 135,-120.5 175,-120.5 175,-103.5 135,-103.5"/>
<text text-anchor="start" x="150" y="-108.3" font-family="Times,serif" font-size="14.00">1</text>
<polygon fill="green" stroke="transparent" points="175,-103.5 175,-120.5 215,-120.5 215,-103.5 175,-103.5"/>
<polygon fill="none" stroke="black" points="175,-103.5 175,-120.5 215,-120.5 215,-103.5 175,-103.5"/>
<text text-anchor="start" x="190" y="-108.3" font-family="Times,serif" font-size="14.00">0</text>
<polygon fill="none" stroke="black" points="8,-102.5 8,-138.5 216,-138.5 216,-102.5 8,-102.5"/>
</g>
<!-- dwparam -->
<g id="node4" class="node">
<title>dwparam</title>
<polygon fill="none" stroke="black" points="107,-0.5 107,-61.5 451,-61.5 451,-0.5 107,-0.5"/>
<polygon fill="none" stroke="black" points="116,-39 116,-56 442,-56 442,-39 116,-39"/>
<text text-anchor="start" x="236.5" y="-43.8" font-family="Times,serif" font-size="14.00">Dwell Array</text>
<polygon fill="none" stroke="black" points="116,-22 116,-39 202,-39 202,-22 116,-22"/>
<text text-anchor="start" x="117" y="-26.8" font-family="Times,serif" font-size="14.00">Dwell State</text>
<polygon fill="green" stroke="transparent" points="202,-22 202,-39 242,-39 242,-22 202,-22"/>
<polygon fill="none" stroke="black" points="202,-22 202,-39 242,-39 242,-22 202,-22"/>
<text text-anchor="start" x="217" y="-26.8" font-family="Times,serif" font-size="14.00">0</text>
<polygon fill="red" stroke="transparent" points="242,-22 242,-39 282,-39 282,-22 242,-22"/>
<polygon fill="none" stroke="black" points="242,-22 242,-39 282,-39 282,-22 242,-22"/>
<text text-anchor="start" x="257" y="-26.8" font-family="Times,serif" font-size="14.00">1</text>
<polygon fill="green" stroke="transparent" points="282,-22 282,-39 322,-39 322,-22 282,-22"/>
<polygon fill="none" stroke="black" points="282,-22 282,-39 322,-39 322,-22 282,-22"/>
<text text-anchor="start" x="297" y="-26.8" font-family="Times,serif" font-size="14.00">0</text>
<polygon fill="green" stroke="transparent" points="322,-22 322,-39 362,-39 362,-22 322,-22"/>
<polygon fill="none" stroke="black" points="322,-22 322,-39 362,-39 362,-22 322,-22"/>
<text text-anchor="start" x="337" y="-26.8" font-family="Times,serif" font-size="14.00">0</text>
<polygon fill="red" stroke="transparent" points="362,-22 362,-39 402,-39 402,-22 362,-22"/>
<polygon fill="none" stroke="black" points="362,-22 362,-39 402,-39 402,-22 362,-22"/>
<text text-anchor="start" x="377" y="-26.8" font-family="Times,serif" font-size="14.00">1</text>
<polygon fill="purple" stroke="transparent" points="402,-22 402,-39 442,-39 442,-22 402,-22"/>
<polygon fill="none" stroke="black" points="402,-22 402,-39 442,-39 442,-22 402,-22"/>
<text text-anchor="start" x="417" y="-26.8" font-family="Times,serif" font-size="14.00">2</text>
<polygon fill="none" stroke="black" points="116,-5 116,-22 202,-22 202,-5 116,-5"/>
<text text-anchor="start" x="124" y="-9.8" font-family="Times,serif" font-size="14.00">Dwell Pos</text>
<polygon fill="yellow" stroke="transparent" points="202,-5 202,-22 242,-22 242,-5 202,-5"/>
<polygon fill="none" stroke="black" points="202,-5 202,-22 242,-22 242,-5 202,-5"/>
<text text-anchor="start" x="217" y="-9.8" font-family="Times,serif" font-size="14.00">2</text>
<polygon fill="cyan" stroke="transparent" points="242,-5 242,-22 282,-22 282,-5 242,-5"/>
<polygon fill="none" stroke="black" points="242,-5 242,-22 282,-22 282,-5 242,-5"/>
<text text-anchor="start" x="257" y="-9.8" font-family="Times,serif" font-size="14.00">0</text>
<polygon fill="coral" stroke="transparent" points="282,-5 282,-22 322,-22 322,-5 282,-5"/>
<polygon fill="none" stroke="black" points="282,-5 282,-22 322,-22 322,-5 282,-5"/>
<text text-anchor="start" x="297" y="-9.8" font-family="Times,serif" font-size="14.00">1</text>
<polygon fill="yellowgreen" stroke="transparent" points="322,-5 322,-22 362,-22 362,-5 322,-5"/>
<polygon fill="none" stroke="black" points="322,-5 322,-22 362,-22 362,-5 322,-5"/>
<text text-anchor="start" x="337" y="-9.8" font-family="Times,serif" font-size="14.00">3</text>
<polygon fill="yellow" stroke="transparent" points="362,-5 362,-22 402,-22 402,-5 362,-5"/>
<polygon fill="none" stroke="black" points="362,-5 362,-22 402,-22 402,-5 362,-5"/>
<text text-anchor="start" x="377" y="-9.8" font-family="Times,serif" font-size="14.00">2</text>
<polygon fill="coral" stroke="transparent" points="402,-5 402,-22 442,-22 442,-5 402,-5"/>
<polygon fill="none" stroke="black" points="402,-5 402,-22 442,-22 442,-5 402,-5"/>
<text text-anchor="start" x="417" y="-9.8" font-family="Times,serif" font-size="14.00">1</text>
<polygon fill="none" stroke="black" points="115,-4.5 115,-57.5 443,-57.5 443,-4.5 115,-4.5"/>
</g>
<!-- burst0&#45;&gt;dwparam -->
<g id="edge1" class="edge">
<title>burst0&#45;&gt;dwparam</title>
<path fill="none" stroke="black" d="M152.43,-98.32C170.76,-88.71 192.9,-77.11 213.51,-66.31"/>
<polygon fill="black" stroke="black" points="215.31,-69.32 222.54,-61.58 212.06,-63.12 215.31,-69.32"/>
</g>
<!-- burst1 -->
<g id="node2" class="node">
<title>burst1</title>
<polygon fill="none" stroke="black" points="242,-98.5 242,-142.5 316,-142.5 316,-98.5 242,-98.5"/>
<polygon fill="none" stroke="black" points="251,-120.5 251,-137.5 307,-137.5 307,-120.5 251,-120.5"/>
<text text-anchor="start" x="252" y="-125.3" font-family="Times,serif" font-size="14.00">Burst 1</text>
<polygon fill="green" stroke="transparent" points="251,-103.5 251,-120.5 307,-120.5 307,-103.5 251,-103.5"/>
<polygon fill="none" stroke="black" points="251,-103.5 251,-120.5 307,-120.5 307,-103.5 251,-103.5"/>
<text text-anchor="start" x="274" y="-108.3" font-family="Times,serif" font-size="14.00">0</text>
<polygon fill="none" stroke="black" points="250,-102.5 250,-138.5 308,-138.5 308,-102.5 250,-102.5"/>
</g>
<!-- burst1&#45;&gt;dwparam -->
<g id="edge2" class="edge">
<title>burst1&#45;&gt;dwparam</title>
<path fill="none" stroke="black" d="M279,-98.32C279,-90.31 279,-80.91 279,-71.74"/>
<polygon fill="black" stroke="black" points="282.5,-71.58 279,-61.58 275.5,-71.58 282.5,-71.58"/>
</g>
<!-- burst2 -->
<g id="node3" class="node">
<title>burst2</title>
<polygon fill="none" stroke="black" points="334,-98.5 334,-142.5 432,-142.5 432,-98.5 334,-98.5"/>
<polygon fill="none" stroke="black" points="343,-120.5 343,-137.5 423,-137.5 423,-120.5 343,-120.5"/>
<text text-anchor="start" x="356" y="-125.3" font-family="Times,serif" font-size="14.00">Burst 2</text>
<polygon fill="red" stroke="transparent" points="343,-103.5 343,-120.5 383,-120.5 383,-103.5 343,-103.5"/>
<polygon fill="none" stroke="black" points="343,-103.5 343,-120.5 383,-120.5 383,-103.5 343,-103.5"/>
<text text-anchor="start" x="358" y="-108.3" font-family="Times,serif" font-size="14.00">1</text>
<polygon fill="purple" stroke="transparent" points="383,-103.5 383,-120.5 423,-120.5 423,-103.5 383,-103.5"/>
<polygon fill="none" stroke="black" points="383,-103.5 383,-120.5 423,-120.5 423,-103.5 383,-103.5"/>
<text text-anchor="start" x="398" y="-108.3" font-family="Times,serif" font-size="14.00">2</text>
<polygon fill="none" stroke="black" points="342,-102.5 342,-138.5 424,-138.5 424,-102.5 342,-102.5"/>
</g>
<!-- burst2&#45;&gt;dwparam -->
<g id="edge3" class="edge">
<title>burst2&#45;&gt;dwparam</title>
<path fill="none" stroke="black" d="M357.82,-98.32C347.07,-89.27 334.22,-78.46 322.04,-68.21"/>
<polygon fill="black" stroke="black" points="324.07,-65.34 314.16,-61.58 319.56,-70.7 324.07,-65.34"/>
</g>
</g>
</svg>
