<?xml version="1.0" encoding="UTF-8" standalone="no"?>
<svg
   width="55.8pt"
   height="54.36pt"
   viewBox="0 0 55.8 54.36"
   version="1.1"
   id="svg46"
   sodipodi:docname="logo_dark.svg"
   inkscape:version="1.1.2 (0a00cf5339, 2022-02-04)"
   xmlns:inkscape="http://www.inkscape.org/namespaces/inkscape"
   xmlns:sodipodi="http://sodipodi.sourceforge.net/DTD/sodipodi-0.dtd"
   xmlns:xlink="http://www.w3.org/1999/xlink"
   xmlns="http://www.w3.org/2000/svg"
   xmlns:svg="http://www.w3.org/2000/svg"
   xmlns:rdf="http://www.w3.org/1999/02/22-rdf-syntax-ns#"
   xmlns:cc="http://creativecommons.org/ns#"
   xmlns:dc="http://purl.org/dc/elements/1.1/">
  <sodipodi:namedview
     id="namedview48"
     pagecolor="#ffffff"
     bordercolor="#666666"
     borderopacity="1.0"
     inkscape:pageshadow="2"
     inkscape:pageopacity="0.0"
     inkscape:pagecheckerboard="0"
     inkscape:document-units="pt"
     showgrid="false"
     inkscape:zoom="11.575607"
     inkscape:cx="37.190275"
     inkscape:cy="36.283195"
     inkscape:window-width="1920"
     inkscape:window-height="1011"
     inkscape:window-x="0"
     inkscape:window-y="32"
     inkscape:window-maximized="1"
     inkscape:current-layer="line2d_2" />
  <metadata
     id="metadata2">
    <rdf:RDF>
      <cc:Work>
        <dc:type
           rdf:resource="http://purl.org/dc/dcmitype/StillImage" />
        <dc:date>2022-07-24T20:37:20.203497</dc:date>
        <dc:format>image/svg+xml</dc:format>
        <dc:creator>
          <cc:Agent>
            <dc:title>Matplotlib v3.5.1, https://matplotlib.org/</dc:title>
          </cc:Agent>
        </dc:creator>
      </cc:Work>
    </rdf:RDF>
  </metadata>
  <defs
     id="defs6">
    <style
       type="text/css"
       id="style4">*{stroke-linejoin: round; stroke-linecap: butt}</style>
  </defs>
  <g
     id="patch_1">
    <path
       d="M 0,54.36 H 55.8 V 0 H 0 Z"
       style="fill:none"
       id="path8" />
  </g>
  <g
     id="line2d_1">
    <path
       d="M 5.072727,42.005455 H 30.436364 V 17.296364 H 55.8"
       clip-path="url(#p1f12ae0c6c)"
       style="fill:none;stroke:#bf00bf;stroke-width:5;stroke-linecap:square"
       id="path11" />
  </g>
  <g
     id="patch_2">
    <path
       d="m 13.95,29.650909 h 7.609091 V 54.36 H 13.95 Z"
       clip-path="url(#p1f12ae0c6c)"
       style="fill:#ff0000"
       id="path14" />
  </g>
  <g
     id="patch_3">
    <path
       d="m 39.313636,29.650909 h 7.609091 V 4.941818 h -7.609091 z"
       clip-path="url(#p1f12ae0c6c)"
       style="fill:#008000"
       id="path17" />
  </g>
  <g
     id="line2d_2">
    <path
       d="m 33.758791,4.132258 -1.921057,2.647665 -1.607811,2.613062 -1.31622,2.556673 -1.046989,2.481511 -0.896079,2.723783 -0.608229,2.585848 -0.354101,2.433284 -0.135518,2.542285 0.09957,2.327173 0.33494,2.329482 0.519364,2.062135 0.726876,1.969881 0.915189,1.813467 1.066991,1.604699 1.168925,1.360838 1.292482,1.165212 1.408486,0.961753 1.476455,0.732694 1.575975,0.528092 1.581873,0.297328 1.293971,0.02448 1.039885,-0.201678 0.855144,-0.386699 0.703572,-0.55537 0.541708,-0.706978 0.365188,-0.847298 0.172492,-0.985463 -0.03371,-1.152565 -0.268654,-1.404776 -0.506779,-1.502254 -0.702955,-1.406406 -0.925351,-1.347274 -1.126085,-1.24476 -1.321315,-1.135671 -1.56526,-1.048408 -1.776695,-0.913214 -1.937892,-0.741877 -2.036357,-0.550192 -2.308787,-0.385115 -2.314621,-0.163647 -2.537188,0.05139 -2.436409,0.260931 -2.597485,0.496437 -2.745199,0.764546 -2.509265,0.914949 -2.593708,1.167819 -2.660175,1.442671 -2.705606,1.73895 -0.778071,0.554165 v 0"
       clip-path="url(#p1f12ae0c6c)"
       style="fill:none;stroke:#ffffff;stroke-width:5;stroke-linecap:square;stroke-opacity:1"
       id="path20" />
  </g>
  <g
     id="PathCollection_1">
    <defs
       id="defs24">
      <path
         id="m22e4a447ac"
         d="m 0,4.472136 c 1.186024,0 2.323632,-0.471213 3.162278,-1.309858 C 4.000923,2.323632 4.472136,1.186024 4.472136,0 c 0,-1.186024 -0.471213,-2.323632 -1.309858,-3.162278 C 2.323632,-4.000923 1.186024,-4.472136 0,-4.472136 c -1.186024,0 -2.323632,0.471213 -3.162278,1.309858 C -4.000923,-2.323632 -4.472136,-1.186024 -4.472136,0 c 0,1.186024 0.471213,2.323632 1.309858,3.162278 C -2.323632,4.000923 -1.186024,4.472136 0,4.472136 Z"
         style="stroke:#00bfbf" />
    </defs>
    <g
       clip-path="url(#p1f12ae0c6c)"
       id="g28">
      <use
         xlink:href="#m22e4a447ac"
         x="33.758793"
         y="4.1322579"
         style="fill:#00bfbf;stroke:#00bfbf"
         id="use26"
         width="100%"
         height="100%" />
    </g>
  </g>
  <g
     id="PathCollection_2">
    <defs
       id="defs32">
      <path
         id="mb3c65a8421"
         d="m 0,4.472136 c 1.186024,0 2.323632,-0.471213 3.162278,-1.309858 C 4.000923,2.323632 4.472136,1.186024 4.472136,0 c 0,-1.186024 -0.471213,-2.323632 -1.309858,-3.162278 C 2.323632,-4.000923 1.186024,-4.472136 0,-4.472136 c -1.186024,0 -2.323632,0.471213 -3.162278,1.309858 C -4.000923,-2.323632 -4.472136,-1.186024 -4.472136,0 c 0,1.186024 0.471213,2.323632 1.309858,3.162278 C -2.323632,4.000923 -1.186024,4.472136 0,4.472136 Z"
         style="stroke:#ffa500" />
    </defs>
    <g
       clip-path="url(#p1f12ae0c6c)"
       id="g36">
      <use
         xlink:href="#mb3c65a8421"
         x="4.6243038"
         y="32.60582"
         style="fill:#ffa500;stroke:#ffa500"
         id="use34"
         width="100%"
         height="100%" />
    </g>
  </g>
  <defs
     id="defs44">
    <clipPath
       id="p1f12ae0c6c">
      <rect
         x="0"
         y="-0"
         width="55.8"
         height="54.36"
         id="rect41" />
    </clipPath>
  </defs>
</svg>
