<?xml version="1.0" encoding="utf-8" standalone="no"?>
<!DOCTYPE svg PUBLIC "-//W3C//DTD SVG 1.1//EN"
  "http://www.w3.org/Graphics/SVG/1.1/DTD/svg11.dtd">
<svg xmlns:xlink="http://www.w3.org/1999/xlink" width="55.8pt" height="54.36pt" viewBox="0 0 55.8 54.36" xmlns="http://www.w3.org/2000/svg" version="1.1">
 <metadata>
  <rdf:RDF xmlns:dc="http://purl.org/dc/elements/1.1/" xmlns:cc="http://creativecommons.org/ns#" xmlns:rdf="http://www.w3.org/1999/02/22-rdf-syntax-ns#">
   <cc:Work>
    <dc:type rdf:resource="http://purl.org/dc/dcmitype/StillImage"/>
    <dc:date>2022-07-24T20:37:20.203497</dc:date>
    <dc:format>image/svg+xml</dc:format>
    <dc:creator>
     <cc:Agent>
      <dc:title>Matplotlib v3.5.1, https://matplotlib.org/</dc:title>
     </cc:Agent>
    </dc:creator>
   </cc:Work>
  </rdf:RDF>
 </metadata>
 <defs>
  <style type="text/css">*{stroke-linejoin: round; stroke-linecap: butt}</style>
 </defs>
 <g id="figure_1">
  <g id="patch_1">
   <path d="M 0 54.36 
L 55.8 54.36 
L 55.8 0 
L 0 0 
L 0 54.36 
z
" style="fill: none"/>
  </g>
  <g id="axes_1">
   <g id="line2d_1">
    <path d="M 5.072727 42.005455 
L 30.436364 42.005455 
L 30.436364 17.296364 
L 55.8 17.296364 
" clip-path="url(#p1f12ae0c6c)" style="fill: none; stroke: #bf00bf; stroke-width: 5; stroke-linecap: square"/>
   </g>
   <g id="patch_2">
    <path d="M 13.95 29.650909 
L 21.559091 29.650909 
L 21.559091 54.36 
L 13.95 54.36 
z
" clip-path="url(#p1f12ae0c6c)" style="fill: #ff0000"/>
   </g>
   <g id="patch_3">
    <path d="M 39.313636 29.650909 
L 46.922727 29.650909 
L 46.922727 4.941818 
L 39.313636 4.941818 
z
" clip-path="url(#p1f12ae0c6c)" style="fill: #008000"/>
   </g>
   <g id="line2d_2">
    <path d="M 33.758791 4.132258 
L 31.837734 6.779923 
L 30.229923 9.392985 
L 28.913703 11.949658 
L 27.866714 14.431169 
L 26.970635 17.154952 
L 26.362406 19.7408 
L 26.008305 22.174084 
L 25.872787 24.716369 
L 25.972355 27.043542 
L 26.307295 29.373024 
L 26.826659 31.435159 
L 27.553535 33.40504 
L 28.468724 35.218507 
L 29.535715 36.823206 
L 30.70464 38.184044 
L 31.997122 39.349256 
L 33.405608 40.311009 
L 34.882063 41.043703 
L 36.458038 41.571795 
L 38.039911 41.869123 
L 39.333882 41.893603 
L 40.373767 41.691925 
L 41.228911 41.305226 
L 41.932483 40.749856 
L 42.474191 40.042878 
L 42.839379 39.19558 
L 43.011871 38.210117 
L 42.978161 37.057552 
L 42.709507 35.652776 
L 42.202728 34.150522 
L 41.499773 32.744116 
L 40.574422 31.396842 
L 39.448337 30.152082 
L 38.127022 29.016411 
L 36.561762 27.968003 
L 34.785067 27.054789 
L 32.847175 26.312912 
L 30.810818 25.76272 
L 28.502031 25.377605 
L 26.18741 25.213958 
L 23.650222 25.265353 
L 21.213813 25.526284 
L 18.616328 26.022721 
L 15.871129 26.787267 
L 13.361864 27.702216 
L 10.768156 28.870035 
L 8.107981 30.312706 
L 5.402375 32.051656 
L 4.624304 32.605821 
L 4.624304 32.605821 
" clip-path="url(#p1f12ae0c6c)" style="fill: none; stroke: #000000; stroke-width: 5; stroke-linecap: square"/>
   </g>
   <g id="PathCollection_1">
    <defs>
     <path id="m22e4a447ac" d="M 0 4.472136 
C 1.186024 4.472136 2.323632 4.000923 3.162278 3.162278 
C 4.000923 2.323632 4.472136 1.186024 4.472136 0 
C 4.472136 -1.186024 4.000923 -2.323632 3.162278 -3.162278 
C 2.323632 -4.000923 1.186024 -4.472136 0 -4.472136 
C -1.186024 -4.472136 -2.323632 -4.000923 -3.162278 -3.162278 
C -4.000923 -2.323632 -4.472136 -1.186024 -4.472136 0 
C -4.472136 1.186024 -4.000923 2.323632 -3.162278 3.162278 
C -2.323632 4.000923 -1.186024 4.472136 0 4.472136 
z
" style="stroke: #00bfbf"/>
    </defs>
    <g clip-path="url(#p1f12ae0c6c)">
     <use xlink:href="#m22e4a447ac" x="33.758791" y="4.132258" style="fill: #00bfbf; stroke: #00bfbf"/>
    </g>
   </g>
   <g id="PathCollection_2">
    <defs>
     <path id="mb3c65a8421" d="M 0 4.472136 
C 1.186024 4.472136 2.323632 4.000923 3.162278 3.162278 
C 4.000923 2.323632 4.472136 1.186024 4.472136 0 
C 4.472136 -1.186024 4.000923 -2.323632 3.162278 -3.162278 
C 2.323632 -4.000923 1.186024 -4.472136 0 -4.472136 
C -1.186024 -4.472136 -2.323632 -4.000923 -3.162278 -3.162278 
C -4.000923 -2.323632 -4.472136 -1.186024 -4.472136 0 
C -4.472136 1.186024 -4.000923 2.323632 -3.162278 3.162278 
C -2.323632 4.000923 -1.186024 4.472136 0 4.472136 
z
" style="stroke: #ffa500"/>
    </defs>
    <g clip-path="url(#p1f12ae0c6c)">
     <use xlink:href="#mb3c65a8421" x="4.624304" y="32.605821" style="fill: #ffa500; stroke: #ffa500"/>
    </g>
   </g>
  </g>
 </g>
 <defs>
  <clipPath id="p1f12ae0c6c">
   <rect x="0" y="-0" width="55.8" height="54.36"/>
  </clipPath>
 </defs>
</svg>
