<?xml version="1.0" encoding="UTF-8" standalone="no"?>
<!DOCTYPE svg PUBLIC "-//W3C//DTD SVG 1.1//EN"
 "http://www.w3.org/Graphics/SVG/1.1/DTD/svg11.dtd">
<!-- Generated by graphviz version 2.43.0 (0)
 -->
<!-- Title: G Pages: 1 -->
<svg width="1426pt" height="963pt"
 viewBox="0.00 0.00 1426.00 963.45" xmlns="http://www.w3.org/2000/svg" xmlns:xlink="http://www.w3.org/1999/xlink">
<g id="graph0" class="graph" transform="scale(1 1) rotate(0) translate(4 959.45)">
<title>G</title>
<polygon fill="white" stroke="transparent" points="-4,4 -4,-959.45 1422,-959.45 1422,4 -4,4"/>
<g id="clust1" class="cluster">
<title>cluster0</title>
<polygon fill="none" stroke="black" points="827,-829 827,-904 1217,-904 1217,-829 827,-829"/>
<text text-anchor="middle" x="1022" y="-888.8" font-family="Times,serif" font-size="14.00">fretbursts.Data</text>
</g>
<g id="clust4" class="cluster">
<title>cluster1</title>
<polygon fill="none" stroke="black" points="1097,-714 1097,-789 1410,-789 1410,-714 1097,-714"/>
<text text-anchor="middle" x="1253.5" y="-773.8" font-family="Times,serif" font-size="14.00">BurstData</text>
</g>
<g id="clust5" class="cluster">
<title>cluster2</title>
<polygon fill="none" stroke="black" points="865,-714 865,-789 960,-789 960,-714 865,-714"/>
<text text-anchor="middle" x="912.5" y="-773.8" font-family="Times,serif" font-size="14.00">H2MM_list</text>
</g>
<g id="clust18" class="cluster">
<title>cluster3</title>
<polygon fill="none" stroke="black" points="42,-8 42,-674 1356,-674 1356,-8 42,-8"/>
<text text-anchor="middle" x="699" y="-658.8" font-family="Times,serif" font-size="14.00">H2MM_result</text>
</g>
<g id="clust19" class="cluster">
<title>cluster4</title>
<polygon fill="none" stroke="black" points="50,-16 50,-590 1348,-590 1348,-16 50,-16"/>
<text text-anchor="middle" x="699" y="-574.8" font-family="Times,serif" font-size="14.00">Dynamically calculated parameters</text>
</g>
<g id="clust20" class="cluster">
<title>cluster5</title>
<polygon fill="none" stroke="black" points="969,-484 969,-559 1261,-559 1261,-484 969,-484"/>
<text text-anchor="middle" x="1115" y="-543.8" font-family="Times,serif" font-size="14.00">Uncertainty Analysis</text>
</g>
<g id="clust21" class="cluster">
<title>cluster6</title>
<polygon fill="none" stroke="black" points="914,-139 914,-329 1128,-329 1128,-139 914,-139"/>
<text text-anchor="middle" x="1021" y="-313.8" font-family="Times,serif" font-size="14.00">Burst based parameters</text>
</g>
<g id="clust22" class="cluster">
<title>cluster7</title>
<polygon fill="none" stroke="black" points="795,-484 795,-559 961,-559 961,-484 795,-484"/>
<text text-anchor="middle" x="878" y="-543.8" font-family="Times,serif" font-size="14.00">Viterbi Results</text>
</g>
<g id="clust24" class="cluster">
<title>cluster8</title>
<polygon fill="none" stroke="black" points="58,-24 58,-444 872,-444 872,-24 58,-24"/>
<text text-anchor="middle" x="465" y="-428.8" font-family="Times,serif" font-size="14.00">Dwell based parameters</text>
</g>
<!-- photon_data -->
<g id="node1" class="node">
<title>photon_data</title>
<ellipse fill="none" stroke="black" cx="1141" cy="-855" rx="67.69" ry="18"/>
<text text-anchor="middle" x="1141" y="-851.3" font-family="Times,serif" font-size="14.00">photon_data</text>
</g>
<!-- bg_period -->
<g id="node2" class="node">
<title>bg_period</title>
<ellipse fill="none" stroke="black" cx="892" cy="-855" rx="56.59" ry="18"/>
<text text-anchor="middle" x="892" y="-851.3" font-family="Times,serif" font-size="14.00">bg_period</text>
</g>
<!-- photon_data&#45;&gt;bg_period -->
<g id="edge1" class="edge">
<title>photon_data&#45;&gt;bg_period</title>
<path fill="none" stroke="black" d="M1130.01,-873.07C1115.78,-894.54 1088.75,-929.24 1055,-943.5 1018.97,-958.73 1002.49,-959.94 967,-943.5 939.78,-930.89 918.84,-902.99 906.1,-881.86"/>
<polygon fill="black" stroke="black" points="909.01,-879.91 900.98,-873 902.95,-883.41 909.01,-879.91"/>
</g>
<!-- mburst -->
<g id="node3" class="node">
<title>mburst</title>
<ellipse fill="none" stroke="black" cx="1011" cy="-855" rx="44.39" ry="18"/>
<text text-anchor="middle" x="1011" y="-851.3" font-family="Times,serif" font-size="14.00">mburst</text>
</g>
<!-- photon_data&#45;&gt;mburst -->
<g id="edge2" class="edge">
<title>photon_data&#45;&gt;mburst</title>
<path fill="none" stroke="black" d="M1073.15,-855C1070.66,-855 1068.17,-855 1065.68,-855"/>
<polygon fill="black" stroke="black" points="1065.43,-851.5 1055.43,-855 1065.43,-858.5 1065.43,-851.5"/>
</g>
<!-- times -->
<g id="node4" class="node">
<title>times</title>
<ellipse fill="none" stroke="black" cx="1141" cy="-740" rx="36.29" ry="18"/>
<text text-anchor="middle" x="1141" y="-736.3" font-family="Times,serif" font-size="14.00">times</text>
</g>
<!-- photon_data&#45;&gt;times -->
<g id="edge6" class="edge">
<title>photon_data&#45;&gt;times</title>
<path fill="none" stroke="black" d="M1141,-836.84C1141,-818.67 1141,-789.72 1141,-768.39"/>
<polygon fill="black" stroke="black" points="1144.5,-768.32 1141,-758.32 1137.5,-768.32 1144.5,-768.32"/>
</g>
<!-- nanos -->
<g id="node5" class="node">
<title>nanos</title>
<ellipse fill="none" stroke="black" cx="1234" cy="-740" rx="38.19" ry="18"/>
<text text-anchor="middle" x="1234" y="-736.3" font-family="Times,serif" font-size="14.00">nanos</text>
</g>
<!-- photon_data&#45;&gt;nanos -->
<g id="edge7" class="edge">
<title>photon_data&#45;&gt;nanos</title>
<path fill="none" stroke="black" d="M1154.72,-837.33C1170.49,-818.16 1196.5,-786.57 1214.4,-764.82"/>
<polygon fill="black" stroke="black" points="1217.17,-766.96 1220.82,-757.01 1211.77,-762.51 1217.17,-766.96"/>
</g>
<!-- index -->
<g id="node7" class="node">
<title>index</title>
<ellipse fill="none" stroke="black" cx="912" cy="-740" rx="36.29" ry="18"/>
<text text-anchor="middle" x="912" y="-736.3" font-family="Times,serif" font-size="14.00">index</text>
</g>
<!-- photon_data&#45;&gt;index -->
<g id="edge8" class="edge">
<title>photon_data&#45;&gt;index</title>
<path fill="none" stroke="black" d="M1110.12,-838.76C1067.35,-817.66 990.37,-779.67 946,-757.78"/>
<polygon fill="black" stroke="black" points="947.31,-754.52 936.79,-753.23 944.21,-760.8 947.31,-754.52"/>
</g>
<!-- bg_period&#45;&gt;mburst -->
<g id="edge3" class="edge">
<title>bg_period&#45;&gt;mburst</title>
<path fill="none" stroke="black" d="M948.71,-855C951.34,-855 953.96,-855 956.59,-855"/>
<polygon fill="black" stroke="black" points="956.72,-858.5 966.72,-855 956.72,-851.5 956.72,-858.5"/>
</g>
<!-- dwell_ph_counts_bg -->
<g id="node22" class="node">
<title>dwell_ph_counts_bg</title>
<ellipse fill="none" stroke="black" cx="169" cy="-165" rx="102.88" ry="18"/>
<text text-anchor="middle" x="169" y="-161.3" font-family="Times,serif" font-size="14.00">dwell_ph_counts_bg</text>
</g>
<!-- bg_period&#45;&gt;dwell_ph_counts_bg -->
<g id="edge42" class="edge">
<title>bg_period&#45;&gt;dwell_ph_counts_bg</title>
<path fill="none" stroke="black" d="M836.62,-851.22C647.38,-840.22 38,-791.93 38,-626 38,-626 38,-626 38,-394 38,-334.73 28.45,-313.94 57,-262 74.27,-230.58 106.14,-204.82 131.49,-187.92"/>
<polygon fill="black" stroke="black" points="133.65,-190.69 140.14,-182.32 129.85,-184.81 133.65,-190.69"/>
</g>
<!-- mburst&#45;&gt;times -->
<g id="edge9" class="edge">
<title>mburst&#45;&gt;times</title>
<path fill="none" stroke="black" d="M1028.8,-838.52C1051.39,-818.89 1090.48,-784.91 1116.04,-762.7"/>
<polygon fill="black" stroke="black" points="1118.57,-765.13 1123.83,-755.93 1113.98,-759.85 1118.57,-765.13"/>
</g>
<!-- mburst&#45;&gt;nanos -->
<g id="edge10" class="edge">
<title>mburst&#45;&gt;nanos</title>
<path fill="none" stroke="black" d="M1037.68,-840.63C1046.01,-836.66 1055.3,-832.46 1064,-829 1117.02,-807.9 1137.39,-818.88 1186,-789 1196.45,-782.57 1206.35,-773.43 1214.4,-764.85"/>
<polygon fill="black" stroke="black" points="1217.18,-767 1221.25,-757.22 1211.96,-762.33 1217.18,-767"/>
</g>
<!-- mburst&#45;&gt;index -->
<g id="edge11" class="edge">
<title>mburst&#45;&gt;index</title>
<path fill="none" stroke="black" d="M996.82,-837.81C979.96,-818.57 951.7,-786.32 932.48,-764.37"/>
<polygon fill="black" stroke="black" points="935.06,-762.01 925.84,-756.8 929.8,-766.62 935.06,-762.01"/>
</g>
<!-- model -->
<g id="node8" class="node">
<title>model</title>
<ellipse fill="none" stroke="black" cx="1017" cy="-625" rx="38.99" ry="18"/>
<text text-anchor="middle" x="1017" y="-621.3" font-family="Times,serif" font-size="14.00">model</text>
</g>
<!-- times&#45;&gt;model -->
<g id="edge4" class="edge">
<title>times&#45;&gt;model</title>
<path fill="none" stroke="black" d="M1124.28,-723.76C1102.92,-704.3 1065.81,-670.48 1041.32,-648.17"/>
<polygon fill="black" stroke="black" points="1043.6,-645.51 1033.85,-641.36 1038.89,-650.68 1043.6,-645.51"/>
</g>
<!-- path -->
<g id="node9" class="node">
<title>path</title>
<ellipse fill="none" stroke="black" cx="835" cy="-510" rx="31.7" ry="18"/>
<text text-anchor="middle" x="835" y="-506.3" font-family="Times,serif" font-size="14.00">path</text>
</g>
<!-- times&#45;&gt;path -->
<g id="edge12" class="edge">
<title>times&#45;&gt;path</title>
<path fill="none" stroke="black" d="M1129.16,-722.96C1119.98,-710.12 1107.3,-691.43 1098,-674 1082.81,-645.53 1096.06,-626.04 1070,-607 1035.06,-581.46 911.97,-614.07 876,-590 858.1,-578.02 847.53,-555.66 841.63,-537.78"/>
<polygon fill="black" stroke="black" points="844.96,-536.71 838.73,-528.14 838.25,-538.72 844.96,-536.71"/>
</g>
<!-- scale -->
<g id="node10" class="node">
<title>scale</title>
<ellipse fill="none" stroke="black" cx="919" cy="-510" rx="34.39" ry="18"/>
<text text-anchor="middle" x="919" y="-506.3" font-family="Times,serif" font-size="14.00">scale</text>
</g>
<!-- times&#45;&gt;scale -->
<g id="edge13" class="edge">
<title>times&#45;&gt;scale</title>
<path fill="none" stroke="black" d="M1140.88,-721.66C1139.66,-692.93 1132.72,-635.74 1098,-607 1052.1,-569 1014.67,-622.92 965,-590 946.64,-577.83 934.67,-555.64 927.56,-537.87"/>
<polygon fill="black" stroke="black" points="930.67,-536.2 923.92,-528.03 924.1,-538.62 930.67,-536.2"/>
</g>
<!-- loglik_err -->
<g id="node11" class="node">
<title>loglik_err</title>
<ellipse fill="none" stroke="black" cx="1198" cy="-510" rx="54.69" ry="18"/>
<text text-anchor="middle" x="1198" y="-506.3" font-family="Times,serif" font-size="14.00">loglik_err</text>
</g>
<!-- times&#45;&gt;loglik_err -->
<g id="edge14" class="edge">
<title>times&#45;&gt;loglik_err</title>
<path fill="none" stroke="black" d="M1151.25,-722.53C1158.72,-709.76 1168.48,-691.37 1174,-674 1188.72,-627.71 1194.47,-571.12 1196.68,-538.25"/>
<polygon fill="black" stroke="black" points="1200.18,-538.26 1197.3,-528.06 1193.2,-537.83 1200.18,-538.26"/>
</g>
<!-- bootstrap_err -->
<g id="node12" class="node">
<title>bootstrap_err</title>
<ellipse fill="none" stroke="black" cx="1051" cy="-510" rx="74.19" ry="18"/>
<text text-anchor="middle" x="1051" y="-506.3" font-family="Times,serif" font-size="14.00">bootstrap_err</text>
</g>
<!-- times&#45;&gt;bootstrap_err -->
<g id="edge15" class="edge">
<title>times&#45;&gt;bootstrap_err</title>
<path fill="none" stroke="black" d="M1143.88,-722C1147.51,-696.11 1151.53,-645.74 1136,-607 1124.3,-577.81 1099.63,-551.61 1079.87,-533.98"/>
<polygon fill="black" stroke="black" points="1082.15,-531.33 1072.3,-527.43 1077.57,-536.62 1082.15,-531.33"/>
</g>
<!-- dwell_dur -->
<g id="node18" class="node">
<title>dwell_dur</title>
<ellipse fill="none" stroke="black" cx="808" cy="-280" rx="55.79" ry="18"/>
<text text-anchor="middle" x="808" y="-276.3" font-family="Times,serif" font-size="14.00">dwell_dur</text>
</g>
<!-- times&#45;&gt;dwell_dur -->
<g id="edge32" class="edge">
<title>times&#45;&gt;dwell_dur</title>
<path fill="none" stroke="black" d="M1158.58,-723.79C1218.27,-670.41 1404.05,-488.81 1305,-377 1246.37,-310.81 994.97,-353.47 910,-329 886.73,-322.3 862.12,-310.86 842.91,-300.83"/>
<polygon fill="black" stroke="black" points="844.41,-297.66 833.94,-296.05 841.11,-303.84 844.41,-297.66"/>
</g>
<!-- nanohist -->
<g id="node13" class="node">
<title>nanohist</title>
<ellipse fill="none" stroke="black" cx="1229" cy="-395" rx="50.89" ry="18"/>
<text text-anchor="middle" x="1229" y="-391.3" font-family="Times,serif" font-size="14.00">nanohist</text>
</g>
<!-- nanos&#45;&gt;nanohist -->
<g id="edge24" class="edge">
<title>nanos&#45;&gt;nanohist</title>
<path fill="none" stroke="black" d="M1239.68,-722.16C1252.74,-681.13 1282.47,-572.83 1265,-484 1260.74,-462.34 1251.1,-439.29 1242.87,-422.22"/>
<polygon fill="black" stroke="black" points="1245.83,-420.3 1238.24,-412.91 1239.56,-423.42 1245.83,-420.3"/>
</g>
<!-- dwell_nano_mean -->
<g id="node21" class="node">
<title>dwell_nano_mean</title>
<ellipse fill="none" stroke="black" cx="733" cy="-50" rx="92.08" ry="18"/>
<text text-anchor="middle" x="733" y="-46.3" font-family="Times,serif" font-size="14.00">dwell_nano_mean</text>
</g>
<!-- nanos&#45;&gt;dwell_nano_mean -->
<g id="edge36" class="edge">
<title>nanos&#45;&gt;dwell_nano_mean</title>
<path fill="none" stroke="black" d="M1250.97,-723.71C1287.03,-689.46 1368,-602.37 1368,-511 1368,-511 1368,-511 1368,-279 1368,-162.86 986.99,-89.84 815.23,-62.83"/>
<polygon fill="black" stroke="black" points="815.64,-59.35 805.22,-61.27 814.57,-66.27 815.64,-59.35"/>
</g>
<!-- irf_thresh -->
<g id="node6" class="node">
<title>irf_thresh</title>
<ellipse fill="none" stroke="black" cx="1346" cy="-740" rx="55.79" ry="18"/>
<text text-anchor="middle" x="1346" y="-736.3" font-family="Times,serif" font-size="14.00">irf_thresh</text>
</g>
<!-- irf_thresh&#45;&gt;dwell_nano_mean -->
<g id="edge37" class="edge">
<title>irf_thresh&#45;&gt;dwell_nano_mean</title>
<path fill="none" stroke="black" d="M1353.72,-721.96C1369.93,-684.58 1406,-592.25 1406,-511 1406,-511 1406,-511 1406,-279 1406,-177.65 1318.59,-180.22 1226,-139 1098.01,-82.02 935.83,-61.91 833.2,-54.82"/>
<polygon fill="black" stroke="black" points="833.36,-51.33 823.15,-54.16 832.89,-58.31 833.36,-51.33"/>
</g>
<!-- index&#45;&gt;model -->
<g id="edge5" class="edge">
<title>index&#45;&gt;model</title>
<path fill="none" stroke="black" d="M926.6,-723.29C944.44,-704.08 974.8,-671.42 995.36,-649.29"/>
<polygon fill="black" stroke="black" points="997.94,-651.65 1002.19,-641.94 992.81,-646.89 997.94,-651.65"/>
</g>
<!-- index&#45;&gt;path -->
<g id="edge16" class="edge">
<title>index&#45;&gt;path</title>
<path fill="none" stroke="black" d="M906.21,-721.86C892.85,-682.3 859.79,-584.41 843.86,-537.24"/>
<polygon fill="black" stroke="black" points="847.16,-536.07 840.65,-527.72 840.53,-538.31 847.16,-536.07"/>
</g>
<!-- index&#45;&gt;scale -->
<g id="edge17" class="edge">
<title>index&#45;&gt;scale</title>
<path fill="none" stroke="black" d="M907.32,-722.05C903.97,-709.03 899.76,-690.53 898,-674 894.85,-644.39 894.8,-636.61 898,-607 900.55,-583.39 906.54,-557.06 911.47,-537.96"/>
<polygon fill="black" stroke="black" points="914.89,-538.72 914.07,-528.16 908.12,-536.93 914.89,-538.72"/>
</g>
<!-- index&#45;&gt;loglik_err -->
<g id="edge18" class="edge">
<title>index&#45;&gt;loglik_err</title>
<path fill="none" stroke="black" d="M918.42,-722.03C931.79,-686.8 961.57,-608.84 964,-607 994.28,-584.1 1100.59,-608.03 1134,-590 1156.09,-578.08 1173.39,-555.02 1184.4,-536.88"/>
<polygon fill="black" stroke="black" points="1187.6,-538.34 1189.58,-527.93 1181.54,-534.84 1187.6,-538.34"/>
</g>
<!-- index&#45;&gt;bootstrap_err -->
<g id="edge19" class="edge">
<title>index&#45;&gt;bootstrap_err</title>
<path fill="none" stroke="black" d="M910.8,-721.88C909.79,-694.95 911.44,-642.12 936,-607 944.56,-594.76 952.99,-598.88 965,-590 987.62,-573.28 1010.98,-551.48 1027.64,-535.01"/>
<polygon fill="black" stroke="black" points="1030.2,-537.41 1034.79,-527.86 1025.25,-532.46 1030.2,-537.41"/>
</g>
<!-- dwell_ph_counts -->
<g id="node19" class="node">
<title>dwell_ph_counts</title>
<ellipse fill="none" stroke="black" cx="153" cy="-280" rx="87.18" ry="18"/>
<text text-anchor="middle" x="153" y="-276.3" font-family="Times,serif" font-size="14.00">dwell_ph_counts</text>
</g>
<!-- index&#45;&gt;dwell_ph_counts -->
<g id="edge34" class="edge">
<title>index&#45;&gt;dwell_ph_counts</title>
<path fill="none" stroke="black" d="M889.7,-725.54C782.58,-660.91 320.72,-382.21 188.5,-302.42"/>
<polygon fill="black" stroke="black" points="190.28,-299.41 179.91,-297.24 186.67,-305.4 190.28,-299.41"/>
</g>
<!-- index&#45;&gt;dwell_nano_mean -->
<g id="edge38" class="edge">
<title>index&#45;&gt;dwell_nano_mean</title>
<path fill="none" stroke="black" d="M875.69,-737.88C706.06,-731.67 0,-694.81 0,-511 0,-511 0,-511 0,-279 0,-211.82 3.8,-180.02 57,-139 62.82,-134.51 466.53,-84.02 647.22,-61.61"/>
<polygon fill="black" stroke="black" points="647.73,-65.07 657.22,-60.36 646.87,-58.12 647.73,-65.07"/>
</g>
<!-- model&#45;&gt;path -->
<g id="edge20" class="edge">
<title>model&#45;&gt;path</title>
<path fill="none" stroke="black" d="M977.93,-623.17C947.31,-620.64 905.14,-612.82 876,-590 859.22,-576.86 848.62,-554.95 842.41,-537.53"/>
<polygon fill="black" stroke="black" points="845.69,-536.3 839.25,-527.89 839.04,-538.48 845.69,-536.3"/>
</g>
<!-- model&#45;&gt;scale -->
<g id="edge21" class="edge">
<title>model&#45;&gt;scale</title>
<path fill="none" stroke="black" d="M992.21,-611.04C982.95,-605.41 972.8,-598.21 965,-590 950.29,-574.51 938.34,-553.47 930.3,-537"/>
<polygon fill="black" stroke="black" points="933.45,-535.47 926.03,-527.91 927.11,-538.45 933.45,-535.47"/>
</g>
<!-- model&#45;&gt;loglik_err -->
<g id="edge22" class="edge">
<title>model&#45;&gt;loglik_err</title>
<path fill="none" stroke="black" d="M1053.96,-619.13C1078.28,-614.58 1109.95,-605.98 1134,-590 1154.66,-576.28 1171.92,-553.82 1183.29,-536.35"/>
<polygon fill="black" stroke="black" points="1186.34,-538.07 1188.68,-527.74 1180.41,-534.36 1186.34,-538.07"/>
</g>
<!-- model&#45;&gt;bootstrap_err -->
<g id="edge23" class="edge">
<title>model&#45;&gt;bootstrap_err</title>
<path fill="none" stroke="black" d="M1022.16,-606.84C1027.66,-588.59 1036.42,-559.46 1042.85,-538.1"/>
<polygon fill="black" stroke="black" points="1046.26,-538.91 1045.79,-528.32 1039.55,-536.89 1046.26,-538.91"/>
</g>
<!-- path&#45;&gt;nanohist -->
<g id="edge25" class="edge">
<title>path&#45;&gt;nanohist</title>
<path fill="none" stroke="black" d="M854.37,-495.53C861,-491.37 868.62,-487.09 876,-484 976.67,-441.92 1102.22,-416.56 1173.23,-404.51"/>
<polygon fill="black" stroke="black" points="1174.01,-407.93 1183.3,-402.83 1172.86,-401.03 1174.01,-407.93"/>
</g>
<!-- trans_locs -->
<g id="node15" class="node">
<title>trans_locs</title>
<ellipse fill="none" stroke="black" cx="678" cy="-395" rx="57.69" ry="18"/>
<text text-anchor="middle" x="678" y="-391.3" font-family="Times,serif" font-size="14.00">trans_locs</text>
</g>
<!-- path&#45;&gt;trans_locs -->
<g id="edge46" class="edge">
<title>path&#45;&gt;trans_locs</title>
<path fill="none" stroke="black" d="M816.06,-495.37C789.37,-476.16 740.4,-440.91 708.54,-417.98"/>
<polygon fill="black" stroke="black" points="710.19,-414.86 700.03,-411.86 706.1,-420.54 710.19,-414.86"/>
</g>
<!-- burst_type -->
<g id="node16" class="node">
<title>burst_type</title>
<ellipse fill="none" stroke="black" cx="982" cy="-165" rx="60.39" ry="18"/>
<text text-anchor="middle" x="982" y="-161.3" font-family="Times,serif" font-size="14.00">burst_type</text>
</g>
<!-- path&#45;&gt;burst_type -->
<g id="edge28" class="edge">
<title>path&#45;&gt;burst_type</title>
<path fill="none" stroke="black" d="M847.19,-493.32C856.43,-480.68 868.74,-462.08 876,-444 906.74,-367.4 879.96,-337.64 913,-262 924.61,-235.41 944.44,-208.92 959.87,-190.52"/>
<polygon fill="black" stroke="black" points="962.75,-192.54 966.6,-182.67 957.43,-187.98 962.75,-192.54"/>
</g>
<!-- burst_state_counts -->
<g id="node17" class="node">
<title>burst_state_counts</title>
<ellipse fill="none" stroke="black" cx="1021" cy="-280" rx="98.58" ry="18"/>
<text text-anchor="middle" x="1021" y="-276.3" font-family="Times,serif" font-size="14.00">burst_state_counts</text>
</g>
<!-- path&#45;&gt;burst_state_counts -->
<g id="edge29" class="edge">
<title>path&#45;&gt;burst_state_counts</title>
<path fill="none" stroke="black" d="M852.89,-495.09C868.37,-482.61 890.9,-463.31 908,-444 947.65,-399.23 985.51,-340.19 1005.76,-306.84"/>
<polygon fill="black" stroke="black" points="1008.83,-308.52 1010.99,-298.15 1002.83,-304.91 1008.83,-308.52"/>
</g>
<!-- dwell_state -->
<g id="node20" class="node">
<title>dwell_state</title>
<ellipse fill="none" stroke="black" cx="322" cy="-280" rx="63.89" ry="18"/>
<text text-anchor="middle" x="322" y="-276.3" font-family="Times,serif" font-size="14.00">dwell_state</text>
</g>
<!-- path&#45;&gt;dwell_state -->
<g id="edge47" class="edge">
<title>path&#45;&gt;dwell_state</title>
<path fill="none" stroke="black" d="M805.68,-502.64C762.22,-492.73 678.58,-471.84 611,-444 512.25,-403.32 492.4,-382.56 400,-329 385.22,-320.43 369.1,-310.6 355.38,-302.07"/>
<polygon fill="black" stroke="black" points="357.08,-299.01 346.74,-296.68 353.37,-304.95 357.08,-299.01"/>
</g>
<!-- scale&#45;&gt;nanohist -->
<g id="edge26" class="edge">
<title>scale&#45;&gt;nanohist</title>
<path fill="none" stroke="black" d="M940.41,-495.76C947.96,-491.53 956.66,-487.13 965,-484 1041.33,-455.37 1067.91,-473.25 1144,-444 1162.65,-436.83 1182.14,-426.09 1197.75,-416.58"/>
<polygon fill="black" stroke="black" points="1199.81,-419.42 1206.46,-411.17 1196.12,-413.48 1199.81,-419.42"/>
</g>
<!-- scale&#45;&gt;dwell_nano_mean -->
<g id="edge39" class="edge">
<title>scale&#45;&gt;dwell_nano_mean</title>
<path fill="none" stroke="black" d="M939.22,-495.28C988.3,-461.5 1111.21,-373.79 1132,-329 1140.89,-309.85 1145.22,-155.46 1132,-139 1094.5,-92.33 932.97,-68.94 827.28,-58.43"/>
<polygon fill="black" stroke="black" points="827.53,-54.94 817.24,-57.45 826.85,-61.9 827.53,-54.94"/>
</g>
<!-- state_nano_mean -->
<g id="node14" class="node">
<title>state_nano_mean</title>
<ellipse fill="none" stroke="black" cx="1249" cy="-280" rx="90.98" ry="18"/>
<text text-anchor="middle" x="1249" y="-276.3" font-family="Times,serif" font-size="14.00">state_nano_mean</text>
</g>
<!-- nanohist&#45;&gt;state_nano_mean -->
<g id="edge27" class="edge">
<title>nanohist&#45;&gt;state_nano_mean</title>
<path fill="none" stroke="black" d="M1232.04,-376.84C1235.25,-358.67 1240.38,-329.72 1244.15,-308.39"/>
<polygon fill="black" stroke="black" points="1247.64,-308.78 1245.93,-298.32 1240.74,-307.56 1247.64,-308.78"/>
</g>
<!-- trans_locs&#45;&gt;burst_type -->
<g id="edge30" class="edge">
<title>trans_locs&#45;&gt;burst_type</title>
<path fill="none" stroke="black" d="M732.54,-388.64C775.76,-381.67 835,-365.68 873,-329 895.87,-306.93 881.71,-289.29 898,-262 914.18,-234.88 938.41,-208.18 956.69,-189.85"/>
<polygon fill="black" stroke="black" points="959.45,-192.04 964.12,-182.53 954.54,-187.05 959.45,-192.04"/>
</g>
<!-- trans_locs&#45;&gt;burst_state_counts -->
<g id="edge31" class="edge">
<title>trans_locs&#45;&gt;burst_state_counts</title>
<path fill="none" stroke="black" d="M718.44,-382.09C760.85,-369.45 829.38,-348.64 888,-329 915.33,-319.84 945.57,-308.99 970.3,-299.92"/>
<polygon fill="black" stroke="black" points="971.66,-303.15 979.83,-296.41 969.24,-296.58 971.66,-303.15"/>
</g>
<!-- trans_locs&#45;&gt;dwell_dur -->
<g id="edge33" class="edge">
<title>trans_locs&#45;&gt;dwell_dur</title>
<path fill="none" stroke="black" d="M696.63,-377.81C718.93,-358.43 756.42,-325.84 781.67,-303.88"/>
<polygon fill="black" stroke="black" points="784.16,-306.36 789.41,-297.16 779.57,-301.08 784.16,-306.36"/>
</g>
<!-- trans_locs&#45;&gt;dwell_ph_counts -->
<g id="edge35" class="edge">
<title>trans_locs&#45;&gt;dwell_ph_counts</title>
<path fill="none" stroke="black" d="M621.54,-391.07C538.28,-385.51 378.43,-370.03 249,-329 228.13,-322.38 206.19,-311.73 188.56,-302.13"/>
<polygon fill="black" stroke="black" points="190.2,-299.04 179.76,-297.24 186.8,-305.16 190.2,-299.04"/>
</g>
<!-- trans_locs&#45;&gt;dwell_state -->
<g id="edge48" class="edge">
<title>trans_locs&#45;&gt;dwell_state</title>
<path fill="none" stroke="black" d="M626,-386.96C568.97,-378.09 475.51,-360.1 400,-329 383.48,-322.2 366.43,-312.11 352.5,-302.95"/>
<polygon fill="black" stroke="black" points="354.08,-299.79 343.84,-297.1 350.17,-305.59 354.08,-299.79"/>
</g>
<!-- trans_locs&#45;&gt;dwell_nano_mean -->
<g id="edge40" class="edge">
<title>trans_locs&#45;&gt;dwell_nano_mean</title>
<path fill="none" stroke="black" d="M629.28,-385.29C556.96,-371.88 428.27,-345.94 415,-329 396.64,-305.55 400.92,-288.24 415,-262 470.54,-158.49 601.67,-97.15 677.05,-69.22"/>
<polygon fill="black" stroke="black" points="678.65,-72.36 686.86,-65.66 676.26,-65.78 678.65,-72.36"/>
</g>
<!-- burst_dwell_num -->
<g id="node23" class="node">
<title>burst_dwell_num</title>
<ellipse fill="none" stroke="black" cx="514" cy="-280" rx="89.88" ry="18"/>
<text text-anchor="middle" x="514" y="-276.3" font-family="Times,serif" font-size="14.00">burst_dwell_num</text>
</g>
<!-- trans_locs&#45;&gt;burst_dwell_num -->
<g id="edge49" class="edge">
<title>trans_locs&#45;&gt;burst_dwell_num</title>
<path fill="none" stroke="black" d="M655.2,-378.29C626.96,-358.83 578.67,-325.56 546.54,-303.42"/>
<polygon fill="black" stroke="black" points="548.16,-300.29 537.94,-297.5 544.19,-306.05 548.16,-300.29"/>
</g>
<!-- dwell_pos -->
<g id="node24" class="node">
<title>dwell_pos</title>
<ellipse fill="none" stroke="black" cx="678" cy="-280" rx="55.79" ry="18"/>
<text text-anchor="middle" x="678" y="-276.3" font-family="Times,serif" font-size="14.00">dwell_pos</text>
</g>
<!-- trans_locs&#45;&gt;dwell_pos -->
<g id="edge50" class="edge">
<title>trans_locs&#45;&gt;dwell_pos</title>
<path fill="none" stroke="black" d="M678,-376.84C678,-358.67 678,-329.72 678,-308.39"/>
<polygon fill="black" stroke="black" points="681.5,-308.32 678,-298.32 674.5,-308.32 681.5,-308.32"/>
</g>
<!-- burst_state_counts&#45;&gt;burst_type -->
<g id="edge45" class="edge">
<title>burst_state_counts&#45;&gt;burst_type</title>
<path fill="none" stroke="black" d="M1015.08,-261.84C1008.71,-243.4 998.52,-213.85 991.13,-192.44"/>
<polygon fill="black" stroke="black" points="994.42,-191.26 987.85,-182.95 987.81,-193.55 994.42,-191.26"/>
</g>
<!-- dwell_dur&#45;&gt;dwell_ph_counts_bg -->
<g id="edge43" class="edge">
<title>dwell_dur&#45;&gt;dwell_ph_counts_bg</title>
<path fill="none" stroke="black" d="M766.87,-267.65C758.98,-265.64 750.76,-263.66 743,-262 572.05,-225.43 369.97,-194.44 256.93,-178.19"/>
<polygon fill="black" stroke="black" points="257.34,-174.71 246.94,-176.76 256.35,-181.64 257.34,-174.71"/>
</g>
<!-- dwell_ph_counts&#45;&gt;dwell_ph_counts_bg -->
<g id="edge44" class="edge">
<title>dwell_ph_counts&#45;&gt;dwell_ph_counts_bg</title>
<path fill="none" stroke="black" d="M155.43,-261.84C158,-243.67 162.1,-214.72 165.12,-193.39"/>
<polygon fill="black" stroke="black" points="168.61,-193.72 166.55,-183.32 161.68,-192.73 168.61,-193.72"/>
</g>
<!-- dwell_E -->
<g id="node25" class="node">
<title>dwell_E</title>
<ellipse fill="none" stroke="black" cx="428" cy="-50" rx="46.59" ry="18"/>
<text text-anchor="middle" x="428" y="-46.3" font-family="Times,serif" font-size="14.00">dwell_E</text>
</g>
<!-- dwell_ph_counts&#45;&gt;dwell_E -->
<g id="edge51" class="edge">
<title>dwell_ph_counts&#45;&gt;dwell_E</title>
<path fill="none" stroke="black" d="M176.12,-262.6C202.12,-243.94 245.37,-212.27 281,-183 325.58,-146.39 375.03,-100.91 403.71,-74.01"/>
<polygon fill="black" stroke="black" points="406.34,-76.35 411.23,-66.95 401.55,-71.25 406.34,-76.35"/>
</g>
<!-- dwell_S -->
<g id="node26" class="node">
<title>dwell_S</title>
<ellipse fill="none" stroke="black" cx="539" cy="-50" rx="46.29" ry="18"/>
<text text-anchor="middle" x="539" y="-46.3" font-family="Times,serif" font-size="14.00">dwell_S</text>
</g>
<!-- dwell_ph_counts&#45;&gt;dwell_S -->
<g id="edge52" class="edge">
<title>dwell_ph_counts&#45;&gt;dwell_S</title>
<path fill="none" stroke="black" d="M180.54,-262.85C212.14,-244.16 265.35,-212.21 310,-183 338.58,-164.31 343.86,-156.81 373,-139 416.12,-112.65 467.85,-85.96 501.97,-69"/>
<polygon fill="black" stroke="black" points="503.7,-72.05 511.11,-64.48 500.59,-65.77 503.7,-72.05"/>
</g>
<!-- dwell_state&#45;&gt;dwell_nano_mean -->
<g id="edge41" class="edge">
<title>dwell_state&#45;&gt;dwell_nano_mean</title>
<path fill="none" stroke="black" d="M326.7,-261.88C335.75,-232.19 358.47,-171.26 400,-139 439.63,-108.21 570.46,-79.97 655.85,-64.16"/>
<polygon fill="black" stroke="black" points="656.56,-67.59 665.77,-62.35 655.3,-60.71 656.56,-67.59"/>
</g>
<!-- dwell_E_corr -->
<g id="node27" class="node">
<title>dwell_E_corr</title>
<ellipse fill="none" stroke="black" cx="136" cy="-50" rx="70.39" ry="18"/>
<text text-anchor="middle" x="136" y="-46.3" font-family="Times,serif" font-size="14.00">dwell_E_corr</text>
</g>
<!-- dwell_ph_counts_bg&#45;&gt;dwell_E_corr -->
<g id="edge53" class="edge">
<title>dwell_ph_counts_bg&#45;&gt;dwell_E_corr</title>
<path fill="none" stroke="black" d="M163.99,-146.84C158.66,-128.59 150.15,-99.46 143.91,-78.1"/>
<polygon fill="black" stroke="black" points="147.22,-76.94 141.06,-68.32 140.5,-78.9 147.22,-76.94"/>
</g>
<!-- dwell_S_corr -->
<g id="node28" class="node">
<title>dwell_S_corr</title>
<ellipse fill="none" stroke="black" cx="294" cy="-50" rx="69.59" ry="18"/>
<text text-anchor="middle" x="294" y="-46.3" font-family="Times,serif" font-size="14.00">dwell_S_corr</text>
</g>
<!-- dwell_ph_counts_bg&#45;&gt;dwell_S_corr -->
<g id="edge54" class="edge">
<title>dwell_ph_counts_bg&#45;&gt;dwell_S_corr</title>
<path fill="none" stroke="black" d="M187.71,-147.08C209.01,-127.83 243.93,-96.26 267.89,-74.6"/>
<polygon fill="black" stroke="black" points="270.5,-76.97 275.57,-67.66 265.8,-71.77 270.5,-76.97"/>
</g>
</g>
</svg>
