<?xml version="1.0" encoding="UTF-8" standalone="no"?>
<!DOCTYPE svg PUBLIC "-//W3C//DTD SVG 1.1//EN"
 "http://www.w3.org/Graphics/SVG/1.1/DTD/svg11.dtd">
<!-- Generated by graphviz version 2.43.0 (0)
 -->
<!-- Title: G Pages: 1 -->
<svg width="1148pt" height="963pt"
 viewBox="0.00 0.00 1148.31 963.45" xmlns="http://www.w3.org/2000/svg" xmlns:xlink="http://www.w3.org/1999/xlink">
<g id="graph0" class="graph" transform="scale(1 1) rotate(0) translate(4 959.45)">
<title>G</title>
<polygon fill="white" stroke="transparent" points="-4,4 -4,-959.45 1144.31,-959.45 1144.31,4 -4,4"/>
<g id="clust1" class="cluster">
<title>cluster0</title>
<polygon fill="none" stroke="black" points="201,-829 201,-904 591,-904 591,-829 201,-829"/>
<text text-anchor="middle" x="396" y="-888.8" font-family="Times,serif" font-size="14.00">fretbursts.Data</text>
</g>
<g id="clust4" class="cluster">
<title>cluster1</title>
<polygon fill="none" stroke="black" points="8,-714 8,-789 321,-789 321,-714 8,-714"/>
<text text-anchor="middle" x="164.5" y="-773.8" font-family="Times,serif" font-size="14.00">BurstData</text>
</g>
<g id="clust5" class="cluster">
<title>cluster2</title>
<polygon fill="none" stroke="black" points="375,-714 375,-789 470,-789 470,-714 375,-714"/>
<text text-anchor="middle" x="422.5" y="-773.8" font-family="Times,serif" font-size="14.00">H2MM_list</text>
</g>
<g id="clust16" class="cluster">
<title>cluster3</title>
<polygon fill="none" stroke="black" points="154,-8 154,-674 1130,-674 1130,-8 154,-8"/>
<text text-anchor="middle" x="642" y="-658.8" font-family="Times,serif" font-size="14.00">H2MM_result</text>
</g>
<g id="clust17" class="cluster">
<title>cluster4</title>
<polygon fill="none" stroke="black" points="162,-16 162,-590 1122,-590 1122,-16 162,-16"/>
<text text-anchor="middle" x="642" y="-574.8" font-family="Times,serif" font-size="14.00">Dynamically calculated parameters</text>
</g>
<g id="clust18" class="cluster">
<title>cluster5</title>
<polygon fill="none" stroke="black" points="229,-484 229,-559 395,-559 395,-484 229,-484"/>
<text text-anchor="middle" x="312" y="-543.8" font-family="Times,serif" font-size="14.00">Viterbi Results</text>
</g>
<g id="clust20" class="cluster">
<title>cluster6</title>
<polygon fill="none" stroke="black" points="300,-24 300,-444 1114,-444 1114,-24 300,-24"/>
<text text-anchor="middle" x="707" y="-428.8" font-family="Times,serif" font-size="14.00">Dwell base parameters</text>
</g>
<!-- photon_data -->
<g id="node1" class="node">
<title>photon_data</title>
<ellipse fill="none" stroke="black" cx="277" cy="-855" rx="67.69" ry="18"/>
<text text-anchor="middle" x="277" y="-851.3" font-family="Times,serif" font-size="14.00">photon_data</text>
</g>
<!-- bg_period -->
<g id="node2" class="node">
<title>bg_period</title>
<ellipse fill="none" stroke="black" cx="526" cy="-855" rx="56.59" ry="18"/>
<text text-anchor="middle" x="526" y="-851.3" font-family="Times,serif" font-size="14.00">bg_period</text>
</g>
<!-- photon_data&#45;&gt;bg_period -->
<g id="edge1" class="edge">
<title>photon_data&#45;&gt;bg_period</title>
<path fill="none" stroke="black" d="M287.99,-873.07C302.22,-894.54 329.25,-929.24 363,-943.5 399.03,-958.73 415.51,-959.94 451,-943.5 478.22,-930.89 499.16,-902.99 511.9,-881.86"/>
<polygon fill="black" stroke="black" points="515.05,-883.41 517.02,-873 508.99,-879.91 515.05,-883.41"/>
</g>
<!-- mburst -->
<g id="node3" class="node">
<title>mburst</title>
<ellipse fill="none" stroke="black" cx="407" cy="-855" rx="44.39" ry="18"/>
<text text-anchor="middle" x="407" y="-851.3" font-family="Times,serif" font-size="14.00">mburst</text>
</g>
<!-- photon_data&#45;&gt;mburst -->
<g id="edge2" class="edge">
<title>photon_data&#45;&gt;mburst</title>
<path fill="none" stroke="black" d="M344.79,-855C347.42,-855 350.04,-855 352.66,-855"/>
<polygon fill="black" stroke="black" points="352.77,-858.5 362.77,-855 352.77,-851.5 352.77,-858.5"/>
</g>
<!-- times -->
<g id="node4" class="node">
<title>times</title>
<ellipse fill="none" stroke="black" cx="277" cy="-740" rx="36.29" ry="18"/>
<text text-anchor="middle" x="277" y="-736.3" font-family="Times,serif" font-size="14.00">times</text>
</g>
<!-- photon_data&#45;&gt;times -->
<g id="edge6" class="edge">
<title>photon_data&#45;&gt;times</title>
<path fill="none" stroke="black" d="M277,-836.84C277,-818.67 277,-789.72 277,-768.39"/>
<polygon fill="black" stroke="black" points="280.5,-768.32 277,-758.32 273.5,-768.32 280.5,-768.32"/>
</g>
<!-- nanos -->
<g id="node5" class="node">
<title>nanos</title>
<ellipse fill="none" stroke="black" cx="184" cy="-740" rx="38.19" ry="18"/>
<text text-anchor="middle" x="184" y="-736.3" font-family="Times,serif" font-size="14.00">nanos</text>
</g>
<!-- photon_data&#45;&gt;nanos -->
<g id="edge7" class="edge">
<title>photon_data&#45;&gt;nanos</title>
<path fill="none" stroke="black" d="M263.28,-837.33C247.51,-818.16 221.5,-786.57 203.6,-764.82"/>
<polygon fill="black" stroke="black" points="206.23,-762.51 197.18,-757.01 200.83,-766.96 206.23,-762.51"/>
</g>
<!-- index -->
<g id="node7" class="node">
<title>index</title>
<ellipse fill="none" stroke="black" cx="422" cy="-740" rx="36.29" ry="18"/>
<text text-anchor="middle" x="422" y="-736.3" font-family="Times,serif" font-size="14.00">index</text>
</g>
<!-- photon_data&#45;&gt;index -->
<g id="edge8" class="edge">
<title>photon_data&#45;&gt;index</title>
<path fill="none" stroke="black" d="M297.77,-837.81C323.32,-817.9 366.75,-784.06 394.9,-762.12"/>
<polygon fill="black" stroke="black" points="397.37,-764.63 403.11,-755.72 393.07,-759.11 397.37,-764.63"/>
</g>
<!-- bg_period&#45;&gt;mburst -->
<g id="edge3" class="edge">
<title>bg_period&#45;&gt;mburst</title>
<path fill="none" stroke="black" d="M469.35,-855C466.85,-855 464.36,-855 461.87,-855"/>
<polygon fill="black" stroke="black" points="461.63,-851.5 451.62,-855 461.62,-858.5 461.63,-851.5"/>
</g>
<!-- dwell_ph_counts_bg -->
<g id="node17" class="node">
<title>dwell_ph_counts_bg</title>
<ellipse fill="none" stroke="black" cx="815" cy="-165" rx="102.88" ry="18"/>
<text text-anchor="middle" x="815" y="-161.3" font-family="Times,serif" font-size="14.00">dwell_ph_counts_bg</text>
</g>
<!-- bg_period&#45;&gt;dwell_ph_counts_bg -->
<g id="edge31" class="edge">
<title>bg_period&#45;&gt;dwell_ph_counts_bg</title>
<path fill="none" stroke="black" d="M575.76,-846.37C720.96,-822.7 1134,-744.93 1134,-626 1134,-626 1134,-626 1134,-394 1134,-334.73 1153.28,-307.26 1115,-262 1067.64,-206 987.56,-182.33 922.05,-172.48"/>
<polygon fill="black" stroke="black" points="922.47,-169.01 912.08,-171.07 921.49,-175.94 922.47,-169.01"/>
</g>
<!-- mburst&#45;&gt;times -->
<g id="edge9" class="edge">
<title>mburst&#45;&gt;times</title>
<path fill="none" stroke="black" d="M389.2,-838.52C366.61,-818.89 327.52,-784.91 301.96,-762.7"/>
<polygon fill="black" stroke="black" points="304.02,-759.85 294.17,-755.93 299.43,-765.13 304.02,-759.85"/>
</g>
<!-- mburst&#45;&gt;nanos -->
<g id="edge10" class="edge">
<title>mburst&#45;&gt;nanos</title>
<path fill="none" stroke="black" d="M380.32,-840.63C371.99,-836.66 362.7,-832.46 354,-829 300.98,-807.9 280.61,-818.88 232,-789 221.55,-782.57 211.65,-773.43 203.6,-764.85"/>
<polygon fill="black" stroke="black" points="206.04,-762.33 196.75,-757.22 200.82,-767 206.04,-762.33"/>
</g>
<!-- mburst&#45;&gt;index -->
<g id="edge11" class="edge">
<title>mburst&#45;&gt;index</title>
<path fill="none" stroke="black" d="M409.28,-836.84C411.69,-818.67 415.53,-789.72 418.36,-768.39"/>
<polygon fill="black" stroke="black" points="421.85,-768.7 419.7,-758.32 414.91,-767.78 421.85,-768.7"/>
</g>
<!-- model -->
<g id="node8" class="node">
<title>model</title>
<ellipse fill="none" stroke="black" cx="355" cy="-625" rx="38.99" ry="18"/>
<text text-anchor="middle" x="355" y="-621.3" font-family="Times,serif" font-size="14.00">model</text>
</g>
<!-- times&#45;&gt;model -->
<g id="edge4" class="edge">
<title>times&#45;&gt;model</title>
<path fill="none" stroke="black" d="M288.18,-722.81C301.13,-704.04 322.64,-672.88 337.75,-650.99"/>
<polygon fill="black" stroke="black" points="340.79,-652.75 343.59,-642.53 335.03,-648.77 340.79,-652.75"/>
</g>
<!-- path -->
<g id="node9" class="node">
<title>path</title>
<ellipse fill="none" stroke="black" cx="355" cy="-510" rx="31.7" ry="18"/>
<text text-anchor="middle" x="355" y="-506.3" font-family="Times,serif" font-size="14.00">path</text>
</g>
<!-- times&#45;&gt;path -->
<g id="edge12" class="edge">
<title>times&#45;&gt;path</title>
<path fill="none" stroke="black" d="M277.94,-721.66C279.85,-695.76 285.52,-645.87 302,-607 305.61,-598.49 309.19,-597.9 314,-590 324.51,-572.73 334.99,-552.47 342.72,-536.8"/>
<polygon fill="black" stroke="black" points="345.92,-538.22 347.16,-527.7 339.63,-535.15 345.92,-538.22"/>
</g>
<!-- scale -->
<g id="node10" class="node">
<title>scale</title>
<ellipse fill="none" stroke="black" cx="271" cy="-510" rx="34.39" ry="18"/>
<text text-anchor="middle" x="271" y="-506.3" font-family="Times,serif" font-size="14.00">scale</text>
</g>
<!-- times&#45;&gt;scale -->
<g id="edge13" class="edge">
<title>times&#45;&gt;scale</title>
<path fill="none" stroke="black" d="M276.08,-721.9C275.41,-708.79 274.52,-690.26 274,-674 272.46,-626.22 271.64,-570.53 271.27,-538.17"/>
<polygon fill="black" stroke="black" points="274.77,-538.1 271.16,-528.14 267.77,-538.17 274.77,-538.1"/>
</g>
<!-- dwell_dur -->
<g id="node13" class="node">
<title>dwell_dur</title>
<ellipse fill="none" stroke="black" cx="384" cy="-280" rx="55.79" ry="18"/>
<text text-anchor="middle" x="384" y="-276.3" font-family="Times,serif" font-size="14.00">dwell_dur</text>
</g>
<!-- times&#45;&gt;dwell_dur -->
<g id="edge21" class="edge">
<title>times&#45;&gt;dwell_dur</title>
<path fill="none" stroke="black" d="M262.78,-723.25C216.79,-670.33 79.51,-495.62 158,-377 194.13,-322.39 268.27,-298.75 321.79,-288.58"/>
<polygon fill="black" stroke="black" points="322.64,-291.98 331.87,-286.78 321.41,-285.09 322.64,-291.98"/>
</g>
<!-- nanohist -->
<g id="node11" class="node">
<title>nanohist</title>
<ellipse fill="none" stroke="black" cx="241" cy="-395" rx="50.89" ry="18"/>
<text text-anchor="middle" x="241" y="-391.3" font-family="Times,serif" font-size="14.00">nanohist</text>
</g>
<!-- nanos&#45;&gt;nanohist -->
<g id="edge18" class="edge">
<title>nanos&#45;&gt;nanohist</title>
<path fill="none" stroke="black" d="M186.62,-721.97C192.94,-680.96 209.67,-573.5 225,-484 228.5,-463.59 232.69,-440.57 235.91,-423.2"/>
<polygon fill="black" stroke="black" points="239.38,-423.65 237.77,-413.18 232.5,-422.37 239.38,-423.65"/>
</g>
<!-- dwell_nano_mean -->
<g id="node16" class="node">
<title>dwell_nano_mean</title>
<ellipse fill="none" stroke="black" cx="400" cy="-50" rx="92.08" ry="18"/>
<text text-anchor="middle" x="400" y="-46.3" font-family="Times,serif" font-size="14.00">dwell_nano_mean</text>
</g>
<!-- nanos&#45;&gt;dwell_nano_mean -->
<g id="edge25" class="edge">
<title>nanos&#45;&gt;dwell_nano_mean</title>
<path fill="none" stroke="black" d="M173.87,-722.54C152.34,-685.95 104,-594.48 104,-511 104,-511 104,-511 104,-279 104,-161.73 251.61,-96.39 338.36,-68.11"/>
<polygon fill="black" stroke="black" points="339.64,-71.38 348.1,-65.01 337.51,-64.71 339.64,-71.38"/>
</g>
<!-- irf_thresh -->
<g id="node6" class="node">
<title>irf_thresh</title>
<ellipse fill="none" stroke="black" cx="72" cy="-740" rx="55.79" ry="18"/>
<text text-anchor="middle" x="72" y="-736.3" font-family="Times,serif" font-size="14.00">irf_thresh</text>
</g>
<!-- irf_thresh&#45;&gt;dwell_nano_mean -->
<g id="edge26" class="edge">
<title>irf_thresh&#45;&gt;dwell_nano_mean</title>
<path fill="none" stroke="black" d="M71.24,-721.84C69.63,-683.86 66,-589.8 66,-511 66,-511 66,-511 66,-279 66,-211.3 90.32,-190.73 142,-147 194.14,-102.88 268.47,-78.1 323.97,-64.82"/>
<polygon fill="black" stroke="black" points="324.8,-68.22 333.76,-62.55 323.22,-61.4 324.8,-68.22"/>
</g>
<!-- index&#45;&gt;model -->
<g id="edge5" class="edge">
<title>index&#45;&gt;model</title>
<path fill="none" stroke="black" d="M412.11,-722.33C401.03,-703.63 382.93,-673.1 370.08,-651.43"/>
<polygon fill="black" stroke="black" points="373.04,-649.56 364.93,-642.74 367.02,-653.13 373.04,-649.56"/>
</g>
<!-- index&#45;&gt;path -->
<g id="edge14" class="edge">
<title>index&#45;&gt;path</title>
<path fill="none" stroke="black" d="M428.44,-722.16C437.25,-696.49 450.4,-646.39 436,-607 424.95,-576.76 399.7,-549.46 380.3,-531.78"/>
<polygon fill="black" stroke="black" points="382.49,-529.04 372.68,-525.03 377.85,-534.28 382.49,-529.04"/>
</g>
<!-- index&#45;&gt;scale -->
<g id="edge15" class="edge">
<title>index&#45;&gt;scale</title>
<path fill="none" stroke="black" d="M425.98,-721.83C431.35,-693.85 437.18,-638.4 408,-607 379.1,-575.9 348.41,-614.86 314,-590 296.54,-577.39 285.41,-555.43 278.86,-537.86"/>
<polygon fill="black" stroke="black" points="282.08,-536.45 275.52,-528.13 275.46,-538.73 282.08,-536.45"/>
</g>
<!-- dwell_ph_counts -->
<g id="node14" class="node">
<title>dwell_ph_counts</title>
<ellipse fill="none" stroke="black" cx="1019" cy="-280" rx="87.18" ry="18"/>
<text text-anchor="middle" x="1019" y="-276.3" font-family="Times,serif" font-size="14.00">dwell_ph_counts</text>
</g>
<!-- index&#45;&gt;dwell_ph_counts -->
<g id="edge23" class="edge">
<title>index&#45;&gt;dwell_ph_counts</title>
<path fill="none" stroke="black" d="M440.85,-724.54C527.02,-658.44 883.66,-384.82 989.36,-303.74"/>
<polygon fill="black" stroke="black" points="991.58,-306.45 997.38,-297.59 987.32,-300.9 991.58,-306.45"/>
</g>
<!-- index&#45;&gt;dwell_nano_mean -->
<g id="edge27" class="edge">
<title>index&#45;&gt;dwell_nano_mean</title>
<path fill="none" stroke="black" d="M455.5,-732.64C614.2,-700.9 1276.23,-549.62 1115,-262 1067.11,-176.56 1018.51,-181.92 927,-147 847.27,-116.57 611,-80.43 483.62,-62.41"/>
<polygon fill="black" stroke="black" points="483.91,-58.91 473.51,-60.98 482.93,-65.85 483.91,-58.91"/>
</g>
<!-- model&#45;&gt;path -->
<g id="edge16" class="edge">
<title>model&#45;&gt;path</title>
<path fill="none" stroke="black" d="M355,-606.84C355,-588.67 355,-559.72 355,-538.39"/>
<polygon fill="black" stroke="black" points="358.5,-538.32 355,-528.32 351.5,-538.32 358.5,-538.32"/>
</g>
<!-- model&#45;&gt;scale -->
<g id="edge17" class="edge">
<title>model&#45;&gt;scale</title>
<path fill="none" stroke="black" d="M334.43,-609.47C327.42,-603.89 319.88,-597.14 314,-590 300.85,-574.02 289.8,-553.42 282.19,-537.26"/>
<polygon fill="black" stroke="black" points="285.24,-535.51 277.91,-527.86 278.86,-538.41 285.24,-535.51"/>
</g>
<!-- path&#45;&gt;nanohist -->
<g id="edge19" class="edge">
<title>path&#45;&gt;nanohist</title>
<path fill="none" stroke="black" d="M339.63,-493.76C320.3,-474.6 286.92,-441.52 264.41,-419.21"/>
<polygon fill="black" stroke="black" points="266.8,-416.64 257.23,-412.09 261.87,-421.62 266.8,-416.64"/>
</g>
<!-- trans_locs -->
<g id="node12" class="node">
<title>trans_locs</title>
<ellipse fill="none" stroke="black" cx="548" cy="-395" rx="57.69" ry="18"/>
<text text-anchor="middle" x="548" y="-391.3" font-family="Times,serif" font-size="14.00">trans_locs</text>
</g>
<!-- path&#45;&gt;trans_locs -->
<g id="edge34" class="edge">
<title>path&#45;&gt;trans_locs</title>
<path fill="none" stroke="black" d="M379.92,-498.41C406.88,-486.57 450.72,-466.11 486,-444 498.02,-436.47 510.52,-427.12 521.12,-418.68"/>
<polygon fill="black" stroke="black" points="523.6,-421.18 529.17,-412.16 519.2,-415.74 523.6,-421.18"/>
</g>
<!-- dwell_state -->
<g id="node15" class="node">
<title>dwell_state</title>
<ellipse fill="none" stroke="black" cx="850" cy="-280" rx="63.89" ry="18"/>
<text text-anchor="middle" x="850" y="-276.3" font-family="Times,serif" font-size="14.00">dwell_state</text>
</g>
<!-- path&#45;&gt;dwell_state -->
<g id="edge35" class="edge">
<title>path&#45;&gt;dwell_state</title>
<path fill="none" stroke="black" d="M385.81,-504.98C435.74,-497.66 536.61,-479.55 615,-444 697.88,-406.42 782.54,-339.1 823.95,-303.89"/>
<polygon fill="black" stroke="black" points="826.33,-306.46 831.64,-297.29 821.77,-301.14 826.33,-306.46"/>
</g>
<!-- scale&#45;&gt;nanohist -->
<g id="edge20" class="edge">
<title>scale&#45;&gt;nanohist</title>
<path fill="none" stroke="black" d="M266.44,-491.84C261.57,-473.48 253.78,-444.12 248.1,-422.73"/>
<polygon fill="black" stroke="black" points="251.45,-421.72 245.5,-412.95 244.68,-423.52 251.45,-421.72"/>
</g>
<!-- scale&#45;&gt;dwell_nano_mean -->
<g id="edge28" class="edge">
<title>scale&#45;&gt;dwell_nano_mean</title>
<path fill="none" stroke="black" d="M243.72,-498.84C221.01,-488.74 190.17,-470.87 176,-444 162.11,-417.66 168.14,-405.72 176,-377 211.5,-247.21 323.88,-125.12 374.66,-74.98"/>
<polygon fill="black" stroke="black" points="377.27,-77.33 381.97,-67.83 372.38,-72.32 377.27,-77.33"/>
</g>
<!-- trans_locs&#45;&gt;dwell_dur -->
<g id="edge22" class="edge">
<title>trans_locs&#45;&gt;dwell_dur</title>
<path fill="none" stroke="black" d="M525.2,-378.29C496.56,-358.55 447.29,-324.61 415.18,-302.48"/>
<polygon fill="black" stroke="black" points="416.83,-299.37 406.61,-296.58 412.86,-305.13 416.83,-299.37"/>
</g>
<!-- trans_locs&#45;&gt;dwell_ph_counts -->
<g id="edge24" class="edge">
<title>trans_locs&#45;&gt;dwell_ph_counts</title>
<path fill="none" stroke="black" d="M592.31,-383.37C675.91,-363.31 857.24,-319.81 954.41,-296.5"/>
<polygon fill="black" stroke="black" points="955.5,-299.83 964.41,-294.1 953.87,-293.03 955.5,-299.83"/>
</g>
<!-- trans_locs&#45;&gt;dwell_state -->
<g id="edge36" class="edge">
<title>trans_locs&#45;&gt;dwell_state</title>
<path fill="none" stroke="black" d="M583.53,-380.71C638.18,-360.26 742.88,-321.08 803.49,-298.4"/>
<polygon fill="black" stroke="black" points="805.05,-301.56 813.19,-294.77 802.6,-295 805.05,-301.56"/>
</g>
<!-- trans_locs&#45;&gt;dwell_nano_mean -->
<g id="edge29" class="edge">
<title>trans_locs&#45;&gt;dwell_nano_mean</title>
<path fill="none" stroke="black" d="M506.11,-382.47C446.14,-365.02 340.61,-330.48 319,-298 270.9,-225.69 340.89,-122.51 378.61,-75.74"/>
<polygon fill="black" stroke="black" points="381.37,-77.89 385.02,-67.94 375.97,-73.44 381.37,-77.89"/>
</g>
<!-- burst_dwell_num -->
<g id="node18" class="node">
<title>burst_dwell_num</title>
<ellipse fill="none" stroke="black" cx="548" cy="-280" rx="89.88" ry="18"/>
<text text-anchor="middle" x="548" y="-276.3" font-family="Times,serif" font-size="14.00">burst_dwell_num</text>
</g>
<!-- trans_locs&#45;&gt;burst_dwell_num -->
<g id="edge37" class="edge">
<title>trans_locs&#45;&gt;burst_dwell_num</title>
<path fill="none" stroke="black" d="M548,-376.84C548,-358.67 548,-329.72 548,-308.39"/>
<polygon fill="black" stroke="black" points="551.5,-308.32 548,-298.32 544.5,-308.32 551.5,-308.32"/>
</g>
<!-- dwell_pos -->
<g id="node19" class="node">
<title>dwell_pos</title>
<ellipse fill="none" stroke="black" cx="712" cy="-280" rx="55.79" ry="18"/>
<text text-anchor="middle" x="712" y="-276.3" font-family="Times,serif" font-size="14.00">dwell_pos</text>
</g>
<!-- trans_locs&#45;&gt;dwell_pos -->
<g id="edge38" class="edge">
<title>trans_locs&#45;&gt;dwell_pos</title>
<path fill="none" stroke="black" d="M570.8,-378.29C599.44,-358.55 648.71,-324.61 680.82,-302.48"/>
<polygon fill="black" stroke="black" points="683.14,-305.13 689.39,-296.58 679.17,-299.37 683.14,-305.13"/>
</g>
<!-- dwell_dur&#45;&gt;dwell_ph_counts_bg -->
<g id="edge32" class="edge">
<title>dwell_dur&#45;&gt;dwell_ph_counts_bg</title>
<path fill="none" stroke="black" d="M426.11,-267.96C501.75,-248.13 661.07,-206.36 750.53,-182.9"/>
<polygon fill="black" stroke="black" points="751.51,-186.27 760.29,-180.34 749.73,-179.49 751.51,-186.27"/>
</g>
<!-- dwell_ph_counts&#45;&gt;dwell_ph_counts_bg -->
<g id="edge33" class="edge">
<title>dwell_ph_counts&#45;&gt;dwell_ph_counts_bg</title>
<path fill="none" stroke="black" d="M989.77,-262.81C953.9,-242.94 892.96,-209.18 853.35,-187.24"/>
<polygon fill="black" stroke="black" points="854.95,-184.13 844.5,-182.34 851.56,-190.25 854.95,-184.13"/>
</g>
<!-- dwell_E -->
<g id="node20" class="node">
<title>dwell_E</title>
<ellipse fill="none" stroke="black" cx="949" cy="-50" rx="46.59" ry="18"/>
<text text-anchor="middle" x="949" y="-46.3" font-family="Times,serif" font-size="14.00">dwell_E</text>
</g>
<!-- dwell_ph_counts&#45;&gt;dwell_E -->
<g id="edge39" class="edge">
<title>dwell_ph_counts&#45;&gt;dwell_E</title>
<path fill="none" stroke="black" d="M1013.74,-261.86C1001.65,-222.48 971.81,-125.3 957.25,-77.88"/>
<polygon fill="black" stroke="black" points="960.51,-76.56 954.23,-68.02 953.82,-78.61 960.51,-76.56"/>
</g>
<!-- dwell_S -->
<g id="node21" class="node">
<title>dwell_S</title>
<ellipse fill="none" stroke="black" cx="1060" cy="-50" rx="46.29" ry="18"/>
<text text-anchor="middle" x="1060" y="-46.3" font-family="Times,serif" font-size="14.00">dwell_S</text>
</g>
<!-- dwell_ph_counts&#45;&gt;dwell_S -->
<g id="edge40" class="edge">
<title>dwell_ph_counts&#45;&gt;dwell_S</title>
<path fill="none" stroke="black" d="M1022.08,-261.86C1029.16,-222.48 1046.64,-125.3 1055.17,-77.88"/>
<polygon fill="black" stroke="black" points="1058.61,-78.49 1056.94,-68.02 1051.72,-77.25 1058.61,-78.49"/>
</g>
<!-- dwell_state&#45;&gt;dwell_nano_mean -->
<g id="edge30" class="edge">
<title>dwell_state&#45;&gt;dwell_nano_mean</title>
<path fill="none" stroke="black" d="M820.47,-264.04C742.38,-224.47 530.29,-117.01 440.76,-71.65"/>
<polygon fill="black" stroke="black" points="442.22,-68.47 431.72,-67.07 439.06,-74.71 442.22,-68.47"/>
</g>
<!-- dwell_E_corr -->
<g id="node22" class="node">
<title>dwell_E_corr</title>
<ellipse fill="none" stroke="black" cx="657" cy="-50" rx="70.39" ry="18"/>
<text text-anchor="middle" x="657" y="-46.3" font-family="Times,serif" font-size="14.00">dwell_E_corr</text>
</g>
<!-- dwell_ph_counts_bg&#45;&gt;dwell_E_corr -->
<g id="edge41" class="edge">
<title>dwell_ph_counts_bg&#45;&gt;dwell_E_corr</title>
<path fill="none" stroke="black" d="M791.69,-147.33C764.15,-127.63 718.23,-94.79 687.79,-73.02"/>
<polygon fill="black" stroke="black" points="689.81,-70.16 679.64,-67.19 685.74,-75.86 689.81,-70.16"/>
</g>
<!-- dwell_S_corr -->
<g id="node23" class="node">
<title>dwell_S_corr</title>
<ellipse fill="none" stroke="black" cx="815" cy="-50" rx="69.59" ry="18"/>
<text text-anchor="middle" x="815" y="-46.3" font-family="Times,serif" font-size="14.00">dwell_S_corr</text>
</g>
<!-- dwell_ph_counts_bg&#45;&gt;dwell_S_corr -->
<g id="edge42" class="edge">
<title>dwell_ph_counts_bg&#45;&gt;dwell_S_corr</title>
<path fill="none" stroke="black" d="M815,-146.84C815,-128.67 815,-99.72 815,-78.39"/>
<polygon fill="black" stroke="black" points="818.5,-78.32 815,-68.32 811.5,-78.32 818.5,-78.32"/>
</g>
</g>
</svg>
