<?xml version="1.0" encoding="UTF-8" standalone="no"?>
<!DOCTYPE svg PUBLIC "-//W3C//DTD SVG 1.1//EN"
 "http://www.w3.org/Graphics/SVG/1.1/DTD/svg11.dtd">
<!-- Generated by graphviz version 2.43.0 (0)
 -->
<!-- Title: G Pages: 1 -->
<svg width="1123pt" height="911pt"
 viewBox="0.00 0.00 1123.44 910.81" xmlns="http://www.w3.org/2000/svg" xmlns:xlink="http://www.w3.org/1999/xlink">
<g id="graph0" class="graph" transform="scale(1 1) rotate(0) translate(4 906.81)">
<title>G</title>
<polygon fill="white" stroke="transparent" points="-4,4 -4,-906.81 1119.44,-906.81 1119.44,4 -4,4"/>
<g id="clust1" class="cluster">
<title>cluster0</title>
<polygon fill="none" stroke="black" points="225,-772 225,-847 614,-847 614,-772 225,-772"/>
<text text-anchor="middle" x="419.5" y="-831.8" font-family="Times,serif" font-size="14.00">fretbursts.Data</text>
</g>
<g id="clust4" class="cluster">
<title>cluster1</title>
<polygon fill="none" stroke="black" points="8,-664 8,-739 321,-739 321,-664 8,-664"/>
<text text-anchor="middle" x="164.5" y="-723.8" font-family="Times,serif" font-size="14.00">BurstData</text>
</g>
<g id="clust5" class="cluster">
<title>cluster2</title>
<polygon fill="none" stroke="black" points="364,-664 364,-739 459,-739 459,-664 364,-664"/>
<text text-anchor="middle" x="411.5" y="-723.8" font-family="Times,serif" font-size="14.00">H2MM_list</text>
</g>
<g id="clust9" class="cluster">
<title>cluster3</title>
<polygon fill="none" stroke="black" points="125,-8 125,-631 1065,-631 1065,-8 125,-8"/>
<text text-anchor="middle" x="595" y="-615.8" font-family="Times,serif" font-size="14.00">H2MM_result</text>
</g>
<g id="clust10" class="cluster">
<title>cluster4</title>
<polygon fill="none" stroke="black" points="275,-448 275,-523 441,-523 441,-448 275,-448"/>
<text text-anchor="middle" x="358" y="-507.8" font-family="Times,serif" font-size="14.00">Viterbi Results</text>
</g>
<g id="clust19" class="cluster">
<title>cluster5</title>
<polygon fill="none" stroke="black" points="243,-16 243,-415 1057,-415 1057,-16 243,-16"/>
<text text-anchor="middle" x="650" y="-399.8" font-family="Times,serif" font-size="14.00">Dwell base parameters</text>
</g>
<!-- photon_data -->
<g id="node1" class="node">
<title>photon_data</title>
<ellipse fill="none" stroke="black" cx="407" cy="-798" rx="67.69" ry="18"/>
<text text-anchor="middle" x="407" y="-794.3" font-family="Times,serif" font-size="14.00">photon_data</text>
</g>
<!-- bg_period -->
<g id="node2" class="node">
<title>bg_period</title>
<ellipse fill="none" stroke="black" cx="549" cy="-798" rx="56.59" ry="18"/>
<text text-anchor="middle" x="549" y="-794.3" font-family="Times,serif" font-size="14.00">bg_period</text>
</g>
<!-- photon_data&#45;&gt;bg_period -->
<g id="edge1" class="edge">
<title>photon_data&#45;&gt;bg_period</title>
<path fill="none" stroke="black" d="M474.67,-798C477.16,-798 479.65,-798 482.14,-798"/>
<polygon fill="black" stroke="black" points="482.38,-801.5 492.38,-798 482.38,-794.5 482.38,-801.5"/>
</g>
<!-- mburst -->
<g id="node3" class="node">
<title>mburst</title>
<ellipse fill="none" stroke="black" cx="277" cy="-798" rx="44.39" ry="18"/>
<text text-anchor="middle" x="277" y="-794.3" font-family="Times,serif" font-size="14.00">mburst</text>
</g>
<!-- photon_data&#45;&gt;mburst -->
<g id="edge2" class="edge">
<title>photon_data&#45;&gt;mburst</title>
<path fill="none" stroke="black" d="M339.15,-798C336.66,-798 334.17,-798 331.68,-798"/>
<polygon fill="black" stroke="black" points="331.43,-794.5 321.43,-798 331.43,-801.5 331.43,-794.5"/>
</g>
<!-- times -->
<g id="node4" class="node">
<title>times</title>
<ellipse fill="none" stroke="black" cx="277" cy="-690" rx="36.29" ry="18"/>
<text text-anchor="middle" x="277" y="-686.3" font-family="Times,serif" font-size="14.00">times</text>
</g>
<!-- photon_data&#45;&gt;times -->
<g id="edge6" class="edge">
<title>photon_data&#45;&gt;times</title>
<path fill="none" stroke="black" d="M386.97,-780.67C364.45,-762.3 327.79,-732.42 303.06,-712.25"/>
<polygon fill="black" stroke="black" points="305.12,-709.42 295.16,-705.81 300.7,-714.84 305.12,-709.42"/>
</g>
<!-- nanos -->
<g id="node5" class="node">
<title>nanos</title>
<ellipse fill="none" stroke="black" cx="184" cy="-690" rx="38.19" ry="18"/>
<text text-anchor="middle" x="184" y="-686.3" font-family="Times,serif" font-size="14.00">nanos</text>
</g>
<!-- photon_data&#45;&gt;nanos -->
<g id="edge7" class="edge">
<title>photon_data&#45;&gt;nanos</title>
<path fill="none" stroke="black" d="M365.99,-783.66C315.2,-767.12 234.97,-740.83 232,-739 221.56,-732.56 211.67,-723.41 203.61,-714.83"/>
<polygon fill="black" stroke="black" points="206.05,-712.31 196.76,-707.21 200.84,-716.99 206.05,-712.31"/>
</g>
<!-- index -->
<g id="node7" class="node">
<title>index</title>
<ellipse fill="none" stroke="black" cx="411" cy="-690" rx="36.29" ry="18"/>
<text text-anchor="middle" x="411" y="-686.3" font-family="Times,serif" font-size="14.00">index</text>
</g>
<!-- photon_data&#45;&gt;index -->
<g id="edge8" class="edge">
<title>photon_data&#45;&gt;index</title>
<path fill="none" stroke="black" d="M407.64,-779.97C408.27,-763.38 409.23,-737.88 409.96,-718.43"/>
<polygon fill="black" stroke="black" points="413.47,-718.47 410.35,-708.34 406.47,-718.2 413.47,-718.47"/>
</g>
<!-- bg_period&#45;&gt;mburst -->
<g id="edge3" class="edge">
<title>bg_period&#45;&gt;mburst</title>
<path fill="none" stroke="black" d="M539.6,-816.03C527.7,-836.64 505.09,-869.3 475,-883 419.99,-908.05 392.88,-910.39 339,-883 315.35,-870.98 298.58,-845.24 288.5,-825.22"/>
<polygon fill="black" stroke="black" points="291.54,-823.46 284.08,-815.93 285.21,-826.47 291.54,-823.46"/>
</g>
<!-- dwell_ph_counts_bg -->
<g id="node19" class="node">
<title>dwell_ph_counts_bg</title>
<ellipse fill="none" stroke="black" cx="835" cy="-150" rx="102.88" ry="18"/>
<text text-anchor="middle" x="835" y="-146.3" font-family="Times,serif" font-size="14.00">dwell_ph_counts_bg</text>
</g>
<!-- bg_period&#45;&gt;dwell_ph_counts_bg -->
<g id="edge34" class="edge">
<title>bg_period&#45;&gt;dwell_ph_counts_bg</title>
<path fill="none" stroke="black" d="M598.73,-789.19C736.85,-766.12 1115,-692.91 1115,-583 1115,-583 1115,-583 1115,-365 1115,-307.65 1121.6,-282.41 1083,-240 1058.25,-212.81 966.8,-184.68 902.17,-167.5"/>
<polygon fill="black" stroke="black" points="903.01,-164.1 892.44,-164.95 901.23,-170.87 903.01,-164.1"/>
</g>
<!-- mburst&#45;&gt;times -->
<g id="edge9" class="edge">
<title>mburst&#45;&gt;times</title>
<path fill="none" stroke="black" d="M277,-779.97C277,-763.38 277,-737.88 277,-718.43"/>
<polygon fill="black" stroke="black" points="280.5,-718.34 277,-708.34 273.5,-718.34 280.5,-718.34"/>
</g>
<!-- mburst&#45;&gt;nanos -->
<g id="edge10" class="edge">
<title>mburst&#45;&gt;nanos</title>
<path fill="none" stroke="black" d="M262.88,-780.9C247.35,-763.21 222.28,-734.63 204.57,-714.45"/>
<polygon fill="black" stroke="black" points="207.18,-712.11 197.95,-706.9 201.92,-716.73 207.18,-712.11"/>
</g>
<!-- mburst&#45;&gt;index -->
<g id="edge11" class="edge">
<title>mburst&#45;&gt;index</title>
<path fill="none" stroke="black" d="M296.48,-781.59C319.67,-763.25 358.5,-732.53 384.43,-712.02"/>
<polygon fill="black" stroke="black" points="386.68,-714.7 392.36,-705.75 382.34,-709.21 386.68,-714.7"/>
</g>
<!-- model -->
<g id="node8" class="node">
<title>model</title>
<ellipse fill="none" stroke="black" cx="344" cy="-582" rx="38.99" ry="18"/>
<text text-anchor="middle" x="344" y="-578.3" font-family="Times,serif" font-size="14.00">model</text>
</g>
<!-- times&#45;&gt;model -->
<g id="edge4" class="edge">
<title>times&#45;&gt;model</title>
<path fill="none" stroke="black" d="M287.47,-672.44C298.38,-655.17 315.62,-627.9 328.2,-608"/>
<polygon fill="black" stroke="black" points="331.22,-609.77 333.6,-599.45 325.3,-606.03 331.22,-609.77"/>
</g>
<!-- path -->
<g id="node9" class="node">
<title>path</title>
<ellipse fill="none" stroke="black" cx="315" cy="-474" rx="31.7" ry="18"/>
<text text-anchor="middle" x="315" y="-470.3" font-family="Times,serif" font-size="14.00">path</text>
</g>
<!-- times&#45;&gt;path -->
<g id="edge12" class="edge">
<title>times&#45;&gt;path</title>
<path fill="none" stroke="black" d="M271.19,-672.12C263.7,-647.81 252.79,-601.73 263,-564 269.49,-540.02 284.23,-515.88 296.37,-498.8"/>
<polygon fill="black" stroke="black" points="299.32,-500.69 302.42,-490.56 293.68,-496.55 299.32,-500.69"/>
</g>
<!-- scale -->
<g id="node10" class="node">
<title>scale</title>
<ellipse fill="none" stroke="black" cx="399" cy="-474" rx="34.39" ry="18"/>
<text text-anchor="middle" x="399" y="-470.3" font-family="Times,serif" font-size="14.00">scale</text>
</g>
<!-- times&#45;&gt;scale -->
<g id="edge13" class="edge">
<title>times&#45;&gt;scale</title>
<path fill="none" stroke="black" d="M274.5,-671.72C271.7,-646.11 270.01,-597.49 291,-564 309.14,-535.06 329.91,-545.04 356,-523 364.46,-515.85 372.81,-507.05 379.87,-498.95"/>
<polygon fill="black" stroke="black" points="382.66,-501.06 386.45,-491.17 377.32,-496.54 382.66,-501.06"/>
</g>
<!-- dwell_dur -->
<g id="node14" class="node">
<title>dwell_dur</title>
<ellipse fill="none" stroke="black" cx="473" cy="-258" rx="55.79" ry="18"/>
<text text-anchor="middle" x="473" y="-254.3" font-family="Times,serif" font-size="14.00">dwell_dur</text>
</g>
<!-- times&#45;&gt;dwell_dur -->
<g id="edge23" class="edge">
<title>times&#45;&gt;dwell_dur</title>
<path fill="none" stroke="black" d="M259.66,-674.06C203.49,-623.9 35.01,-458.44 121,-348 130.25,-336.13 321.62,-292.43 418.22,-271.01"/>
<polygon fill="black" stroke="black" points="419.1,-274.4 428.11,-268.82 417.59,-267.56 419.1,-274.4"/>
</g>
<!-- nanohist -->
<g id="node12" class="node">
<title>nanohist</title>
<ellipse fill="none" stroke="black" cx="184" cy="-366" rx="50.89" ry="18"/>
<text text-anchor="middle" x="184" y="-362.3" font-family="Times,serif" font-size="14.00">nanohist</text>
</g>
<!-- nanos&#45;&gt;nanohist -->
<g id="edge19" class="edge">
<title>nanos&#45;&gt;nanohist</title>
<path fill="none" stroke="black" d="M184,-671.69C184,-618.71 184,-458.5 184,-394.17"/>
<polygon fill="black" stroke="black" points="187.5,-394.01 184,-384.01 180.5,-394.01 187.5,-394.01"/>
</g>
<!-- dwell_nano_mean -->
<g id="node18" class="node">
<title>dwell_nano_mean</title>
<ellipse fill="none" stroke="black" cx="343" cy="-150" rx="92.08" ry="18"/>
<text text-anchor="middle" x="343" y="-146.3" font-family="Times,serif" font-size="14.00">dwell_nano_mean</text>
</g>
<!-- nanos&#45;&gt;dwell_nano_mean -->
<g id="edge29" class="edge">
<title>nanos&#45;&gt;dwell_nano_mean</title>
<path fill="none" stroke="black" d="M168.22,-673.43C136.28,-640.18 67,-558.42 67,-475 67,-475 67,-475 67,-365 67,-256.77 201.18,-195.43 282.42,-168.21"/>
<polygon fill="black" stroke="black" points="283.64,-171.49 292.06,-165.06 281.46,-164.84 283.64,-171.49"/>
</g>
<!-- irf_thresh -->
<g id="node6" class="node">
<title>irf_thresh</title>
<ellipse fill="none" stroke="black" cx="72" cy="-690" rx="55.79" ry="18"/>
<text text-anchor="middle" x="72" y="-686.3" font-family="Times,serif" font-size="14.00">irf_thresh</text>
</g>
<!-- irf_thresh&#45;&gt;dwell_nano_mean -->
<g id="edge30" class="edge">
<title>irf_thresh&#45;&gt;dwell_nano_mean</title>
<path fill="none" stroke="black" d="M66.2,-672.03C54.46,-636.14 29,-549.65 29,-475 29,-475 29,-475 29,-365 29,-248.04 179.6,-190.44 272.2,-166.08"/>
<polygon fill="black" stroke="black" points="273.27,-169.42 282.09,-163.55 271.53,-162.64 273.27,-169.42"/>
</g>
<!-- index&#45;&gt;model -->
<g id="edge5" class="edge">
<title>index&#45;&gt;model</title>
<path fill="none" stroke="black" d="M400.53,-672.44C389.62,-655.17 372.38,-627.9 359.8,-608"/>
<polygon fill="black" stroke="black" points="362.7,-606.03 354.4,-599.45 356.78,-609.77 362.7,-606.03"/>
</g>
<!-- index&#45;&gt;path -->
<g id="edge14" class="edge">
<title>index&#45;&gt;path</title>
<path fill="none" stroke="black" d="M412.54,-671.86C414.04,-646.83 414.04,-599.42 397,-564 385.83,-540.78 373.49,-541.92 356,-523 348.9,-515.32 341.39,-506.69 334.77,-498.89"/>
<polygon fill="black" stroke="black" points="337.11,-496.23 327.99,-490.83 331.75,-500.74 337.11,-496.23"/>
</g>
<!-- index&#45;&gt;scale -->
<g id="edge15" class="edge">
<title>index&#45;&gt;scale</title>
<path fill="none" stroke="black" d="M416.25,-671.94C419.49,-660.48 423.34,-644.99 425,-631 428.52,-601.43 429.22,-593.48 425,-564 421.91,-542.42 414.82,-518.77 408.82,-501.27"/>
<polygon fill="black" stroke="black" points="412.08,-500.01 405.45,-491.75 405.48,-502.34 412.08,-500.01"/>
</g>
<!-- dwell_ph_counts -->
<g id="node15" class="node">
<title>dwell_ph_counts</title>
<ellipse fill="none" stroke="black" cx="962" cy="-258" rx="87.18" ry="18"/>
<text text-anchor="middle" x="962" y="-254.3" font-family="Times,serif" font-size="14.00">dwell_ph_counts</text>
</g>
<!-- index&#45;&gt;dwell_ph_counts -->
<g id="edge25" class="edge">
<title>index&#45;&gt;dwell_ph_counts</title>
<path fill="none" stroke="black" d="M429.65,-674.45C510.75,-611.15 833.16,-359.55 932.62,-281.93"/>
<polygon fill="black" stroke="black" points="935.01,-284.5 940.74,-275.59 930.7,-278.98 935.01,-284.5"/>
</g>
<!-- index&#45;&gt;dwell_nano_mean -->
<g id="edge31" class="edge">
<title>index&#45;&gt;dwell_nano_mean</title>
<path fill="none" stroke="black" d="M446.34,-685.47C584.02,-670.76 1077,-608.74 1077,-475 1077,-475 1077,-475 1077,-365 1077,-308.81 1098.27,-279.19 1058,-240 1014.49,-197.65 625.62,-168.34 440.34,-156.65"/>
<polygon fill="black" stroke="black" points="440.53,-153.16 430.33,-156.03 440.09,-160.15 440.53,-153.16"/>
</g>
<!-- model&#45;&gt;path -->
<g id="edge16" class="edge">
<title>model&#45;&gt;path</title>
<path fill="none" stroke="black" d="M339.34,-563.97C334.75,-547.2 327.68,-521.34 322.34,-501.81"/>
<polygon fill="black" stroke="black" points="325.66,-500.71 319.65,-491.99 318.91,-502.56 325.66,-500.71"/>
</g>
<!-- model&#45;&gt;scale -->
<g id="edge17" class="edge">
<title>model&#45;&gt;scale</title>
<path fill="none" stroke="black" d="M352.59,-564.44C361.47,-547.32 375.45,-520.39 385.75,-500.54"/>
<polygon fill="black" stroke="black" points="388.97,-501.93 390.47,-491.45 382.75,-498.71 388.97,-501.93"/>
</g>
<!-- trans_locs -->
<g id="node11" class="node">
<title>trans_locs</title>
<ellipse fill="none" stroke="black" cx="473" cy="-366" rx="57.69" ry="18"/>
<text text-anchor="middle" x="473" y="-362.3" font-family="Times,serif" font-size="14.00">trans_locs</text>
</g>
<!-- path&#45;&gt;trans_locs -->
<g id="edge18" class="edge">
<title>path&#45;&gt;trans_locs</title>
<path fill="none" stroke="black" d="M334.69,-459.79C361.38,-441.88 409.36,-409.69 441.2,-388.34"/>
<polygon fill="black" stroke="black" points="443.36,-391.1 449.72,-382.62 439.46,-385.28 443.36,-391.1"/>
</g>
<!-- path&#45;&gt;nanohist -->
<g id="edge20" class="edge">
<title>path&#45;&gt;nanohist</title>
<path fill="none" stroke="black" d="M296.31,-459.27C280.76,-447.72 258.16,-430.64 239,-415 229.28,-407.06 218.85,-398.09 209.72,-390.06"/>
<polygon fill="black" stroke="black" points="211.89,-387.31 202.08,-383.31 207.25,-392.55 211.89,-387.31"/>
</g>
<!-- dwell_state -->
<g id="node13" class="node">
<title>dwell_state</title>
<ellipse fill="none" stroke="black" cx="315" cy="-258" rx="63.89" ry="18"/>
<text text-anchor="middle" x="315" y="-254.3" font-family="Times,serif" font-size="14.00">dwell_state</text>
</g>
<!-- path&#45;&gt;dwell_state -->
<g id="edge21" class="edge">
<title>path&#45;&gt;dwell_state</title>
<path fill="none" stroke="black" d="M315,-455.85C315,-418.83 315,-331.18 315,-286.39"/>
<polygon fill="black" stroke="black" points="318.5,-286.23 315,-276.23 311.5,-286.23 318.5,-286.23"/>
</g>
<!-- trans_locs&#45;&gt;dwell_state -->
<g id="edge22" class="edge">
<title>trans_locs&#45;&gt;dwell_state</title>
<path fill="none" stroke="black" d="M449.69,-349.36C422.58,-331.17 377.66,-301.04 347.23,-280.62"/>
<polygon fill="black" stroke="black" points="348.92,-277.54 338.67,-274.88 345.02,-283.36 348.92,-277.54"/>
</g>
<!-- trans_locs&#45;&gt;dwell_dur -->
<g id="edge24" class="edge">
<title>trans_locs&#45;&gt;dwell_dur</title>
<path fill="none" stroke="black" d="M473,-347.97C473,-331.38 473,-305.88 473,-286.43"/>
<polygon fill="black" stroke="black" points="476.5,-286.34 473,-276.34 469.5,-286.34 476.5,-286.34"/>
</g>
<!-- trans_locs&#45;&gt;dwell_ph_counts -->
<g id="edge26" class="edge">
<title>trans_locs&#45;&gt;dwell_ph_counts</title>
<path fill="none" stroke="black" d="M519,-355.03C605.63,-336.25 793.32,-295.56 894.35,-273.66"/>
<polygon fill="black" stroke="black" points="895.12,-277.08 904.15,-271.54 893.64,-270.24 895.12,-277.08"/>
</g>
<!-- trans_locs&#45;&gt;dwell_nano_mean -->
<g id="edge32" class="edge">
<title>trans_locs&#45;&gt;dwell_nano_mean</title>
<path fill="none" stroke="black" d="M459.75,-348.47C446.03,-330.98 424.34,-302.34 408,-276 396.96,-258.2 371.59,-208.26 356.02,-177.16"/>
<polygon fill="black" stroke="black" points="359.12,-175.55 351.52,-168.17 352.86,-178.68 359.12,-175.55"/>
</g>
<!-- burst_dwell_num -->
<g id="node22" class="node">
<title>burst_dwell_num</title>
<ellipse fill="none" stroke="black" cx="767" cy="-258" rx="89.88" ry="18"/>
<text text-anchor="middle" x="767" y="-254.3" font-family="Times,serif" font-size="14.00">burst_dwell_num</text>
</g>
<!-- trans_locs&#45;&gt;burst_dwell_num -->
<g id="edge39" class="edge">
<title>trans_locs&#45;&gt;burst_dwell_num</title>
<path fill="none" stroke="black" d="M509.35,-351.9C561.15,-333.22 656.49,-298.84 715.54,-277.55"/>
<polygon fill="black" stroke="black" points="716.83,-280.81 725.05,-274.12 714.46,-274.22 716.83,-280.81"/>
</g>
<!-- dwell_pos -->
<g id="node23" class="node">
<title>dwell_pos</title>
<ellipse fill="none" stroke="black" cx="603" cy="-258" rx="55.79" ry="18"/>
<text text-anchor="middle" x="603" y="-254.3" font-family="Times,serif" font-size="14.00">dwell_pos</text>
</g>
<!-- trans_locs&#45;&gt;dwell_pos -->
<g id="edge40" class="edge">
<title>trans_locs&#45;&gt;dwell_pos</title>
<path fill="none" stroke="black" d="M492.74,-348.9C514.82,-330.9 550.74,-301.62 575.54,-281.39"/>
<polygon fill="black" stroke="black" points="577.96,-283.94 583.5,-274.9 573.53,-278.51 577.96,-283.94"/>
</g>
<!-- dwell_state&#45;&gt;dwell_nano_mean -->
<g id="edge33" class="edge">
<title>dwell_state&#45;&gt;dwell_nano_mean</title>
<path fill="none" stroke="black" d="M319.5,-239.97C323.93,-223.2 330.76,-197.34 335.92,-177.81"/>
<polygon fill="black" stroke="black" points="339.34,-178.55 338.51,-167.99 332.57,-176.76 339.34,-178.55"/>
</g>
<!-- dwell_dur&#45;&gt;dwell_ph_counts_bg -->
<g id="edge35" class="edge">
<title>dwell_dur&#45;&gt;dwell_ph_counts_bg</title>
<path fill="none" stroke="black" d="M512.78,-245.35C576.23,-226.77 700.77,-190.31 775.06,-168.55"/>
<polygon fill="black" stroke="black" points="776.14,-171.88 784.75,-165.71 774.17,-165.16 776.14,-171.88"/>
</g>
<!-- dwell_E -->
<g id="node16" class="node">
<title>dwell_E</title>
<ellipse fill="none" stroke="black" cx="1002" cy="-150" rx="46.59" ry="18"/>
<text text-anchor="middle" x="1002" y="-146.3" font-family="Times,serif" font-size="14.00">dwell_E</text>
</g>
<!-- dwell_ph_counts&#45;&gt;dwell_E -->
<g id="edge27" class="edge">
<title>dwell_ph_counts&#45;&gt;dwell_E</title>
<path fill="none" stroke="black" d="M968.43,-239.97C974.78,-223.12 984.6,-197.1 991.98,-177.54"/>
<polygon fill="black" stroke="black" points="995.33,-178.58 995.59,-167.99 988.78,-176.11 995.33,-178.58"/>
</g>
<!-- dwell_S -->
<g id="node17" class="node">
<title>dwell_S</title>
<ellipse fill="none" stroke="black" cx="668" cy="-150" rx="46.29" ry="18"/>
<text text-anchor="middle" x="668" y="-146.3" font-family="Times,serif" font-size="14.00">dwell_S</text>
</g>
<!-- dwell_ph_counts&#45;&gt;dwell_S -->
<g id="edge28" class="edge">
<title>dwell_ph_counts&#45;&gt;dwell_S</title>
<path fill="none" stroke="black" d="M920.5,-242.04C864.8,-221.96 766.4,-186.48 710.3,-166.25"/>
<polygon fill="black" stroke="black" points="711.27,-162.88 700.67,-162.78 708.89,-169.46 711.27,-162.88"/>
</g>
<!-- dwell_ph_counts&#45;&gt;dwell_ph_counts_bg -->
<g id="edge36" class="edge">
<title>dwell_ph_counts&#45;&gt;dwell_ph_counts_bg</title>
<path fill="none" stroke="black" d="M942.16,-240.44C920.85,-222.65 886.82,-194.25 862.84,-174.24"/>
<polygon fill="black" stroke="black" points="865.04,-171.52 855.12,-167.8 860.56,-176.89 865.04,-171.52"/>
</g>
<!-- dwell_E_corr -->
<g id="node20" class="node">
<title>dwell_E_corr</title>
<ellipse fill="none" stroke="black" cx="749" cy="-42" rx="70.39" ry="18"/>
<text text-anchor="middle" x="749" y="-38.3" font-family="Times,serif" font-size="14.00">dwell_E_corr</text>
</g>
<!-- dwell_ph_counts_bg&#45;&gt;dwell_E_corr -->
<g id="edge37" class="edge">
<title>dwell_ph_counts_bg&#45;&gt;dwell_E_corr</title>
<path fill="none" stroke="black" d="M821.18,-131.97C807.14,-114.66 785.24,-87.66 769.24,-67.94"/>
<polygon fill="black" stroke="black" points="771.8,-65.55 762.78,-59.99 766.37,-69.96 771.8,-65.55"/>
</g>
<!-- dwell_S_corr -->
<g id="node21" class="node">
<title>dwell_S_corr</title>
<ellipse fill="none" stroke="black" cx="907" cy="-42" rx="69.59" ry="18"/>
<text text-anchor="middle" x="907" y="-38.3" font-family="Times,serif" font-size="14.00">dwell_S_corr</text>
</g>
<!-- dwell_ph_counts_bg&#45;&gt;dwell_S_corr -->
<g id="edge38" class="edge">
<title>dwell_ph_counts_bg&#45;&gt;dwell_S_corr</title>
<path fill="none" stroke="black" d="M846.57,-131.97C858.22,-114.82 876.34,-88.14 889.7,-68.47"/>
<polygon fill="black" stroke="black" points="892.74,-70.23 895.46,-59.99 886.95,-66.29 892.74,-70.23"/>
</g>
</g>
</svg>
