<?xml version="1.0" encoding="UTF-8" standalone="no"?>
<!DOCTYPE svg PUBLIC "-//W3C//DTD SVG 1.1//EN"
 "http://www.w3.org/Graphics/SVG/1.1/DTD/svg11.dtd">
<!-- Generated by graphviz version 2.43.0 (0)
 -->
<!-- Title: G Pages: 1 -->
<svg width="1250pt" height="972pt"
 viewBox="0.00 0.00 1250.00 971.71" xmlns="http://www.w3.org/2000/svg" xmlns:xlink="http://www.w3.org/1999/xlink">
<g id="graph0" class="graph" transform="scale(1 1) rotate(0) translate(4 967.71)">
<title>G</title>
<polygon fill="white" stroke="transparent" points="-4,4 -4,-967.71 1246,-967.71 1246,4 -4,4"/>
<g id="clust1" class="cluster">
<title>cluster0</title>
<polygon fill="none" stroke="black" points="225,-829 225,-904 614,-904 614,-829 225,-829"/>
<text text-anchor="middle" x="419.5" y="-888.8" font-family="Times,serif" font-size="14.00">fretbursts.Data</text>
</g>
<g id="clust4" class="cluster">
<title>cluster1</title>
<polygon fill="none" stroke="black" points="8,-714 8,-789 321,-789 321,-714 8,-714"/>
<text text-anchor="middle" x="164.5" y="-773.8" font-family="Times,serif" font-size="14.00">BurstData</text>
</g>
<g id="clust5" class="cluster">
<title>cluster2</title>
<polygon fill="none" stroke="black" points="362,-714 362,-789 457,-789 457,-714 362,-714"/>
<text text-anchor="middle" x="409.5" y="-773.8" font-family="Times,serif" font-size="14.00">H2MM_list</text>
</g>
<g id="clust18" class="cluster">
<title>cluster3</title>
<polygon fill="none" stroke="black" points="86,-8 86,-674 1200,-674 1200,-8 86,-8"/>
<text text-anchor="middle" x="643" y="-658.8" font-family="Times,serif" font-size="14.00">H2MM_result</text>
</g>
<g id="clust19" class="cluster">
<title>cluster4</title>
<polygon fill="none" stroke="black" points="94,-16 94,-590 1192,-590 1192,-16 94,-16"/>
<text text-anchor="middle" x="643" y="-574.8" font-family="Times,serif" font-size="14.00">Dynamically calculated parameters</text>
</g>
<g id="clust20" class="cluster">
<title>cluster5</title>
<polygon fill="none" stroke="black" points="114,-139 114,-329 328,-329 328,-139 114,-139"/>
<text text-anchor="middle" x="221" y="-313.8" font-family="Times,serif" font-size="14.00">Burst based parameters</text>
</g>
<g id="clust21" class="cluster">
<title>cluster6</title>
<polygon fill="none" stroke="black" points="216,-484 216,-559 382,-559 382,-484 216,-484"/>
<text text-anchor="middle" x="299" y="-543.8" font-family="Times,serif" font-size="14.00">Viterbi Results</text>
</g>
<g id="clust23" class="cluster">
<title>cluster7</title>
<polygon fill="none" stroke="black" points="370,-24 370,-444 1184,-444 1184,-24 370,-24"/>
<text text-anchor="middle" x="777" y="-428.8" font-family="Times,serif" font-size="14.00">Dwell based parameters</text>
</g>
<!-- photon_data -->
<g id="node1" class="node">
<title>photon_data</title>
<ellipse fill="none" stroke="black" cx="407" cy="-855" rx="67.69" ry="18"/>
<text text-anchor="middle" x="407" y="-851.3" font-family="Times,serif" font-size="14.00">photon_data</text>
</g>
<!-- bg_period -->
<g id="node2" class="node">
<title>bg_period</title>
<ellipse fill="none" stroke="black" cx="549" cy="-855" rx="56.59" ry="18"/>
<text text-anchor="middle" x="549" y="-851.3" font-family="Times,serif" font-size="14.00">bg_period</text>
</g>
<!-- photon_data&#45;&gt;bg_period -->
<g id="edge1" class="edge">
<title>photon_data&#45;&gt;bg_period</title>
<path fill="none" stroke="black" d="M474.67,-855C477.16,-855 479.65,-855 482.14,-855"/>
<polygon fill="black" stroke="black" points="482.38,-858.5 492.38,-855 482.38,-851.5 482.38,-858.5"/>
</g>
<!-- mburst -->
<g id="node3" class="node">
<title>mburst</title>
<ellipse fill="none" stroke="black" cx="277" cy="-855" rx="44.39" ry="18"/>
<text text-anchor="middle" x="277" y="-851.3" font-family="Times,serif" font-size="14.00">mburst</text>
</g>
<!-- photon_data&#45;&gt;mburst -->
<g id="edge2" class="edge">
<title>photon_data&#45;&gt;mburst</title>
<path fill="none" stroke="black" d="M339.15,-855C336.66,-855 334.17,-855 331.68,-855"/>
<polygon fill="black" stroke="black" points="331.43,-851.5 321.43,-855 331.43,-858.5 331.43,-851.5"/>
</g>
<!-- times -->
<g id="node4" class="node">
<title>times</title>
<ellipse fill="none" stroke="black" cx="277" cy="-740" rx="36.29" ry="18"/>
<text text-anchor="middle" x="277" y="-736.3" font-family="Times,serif" font-size="14.00">times</text>
</g>
<!-- photon_data&#45;&gt;times -->
<g id="edge6" class="edge">
<title>photon_data&#45;&gt;times</title>
<path fill="none" stroke="black" d="M388.1,-837.57C365.35,-817.8 327.08,-784.53 301.93,-762.67"/>
<polygon fill="black" stroke="black" points="304.11,-759.93 294.26,-756.01 299.52,-765.21 304.11,-759.93"/>
</g>
<!-- nanos -->
<g id="node5" class="node">
<title>nanos</title>
<ellipse fill="none" stroke="black" cx="184" cy="-740" rx="38.19" ry="18"/>
<text text-anchor="middle" x="184" y="-736.3" font-family="Times,serif" font-size="14.00">nanos</text>
</g>
<!-- photon_data&#45;&gt;nanos -->
<g id="edge7" class="edge">
<title>photon_data&#45;&gt;nanos</title>
<path fill="none" stroke="black" d="M367.46,-840.32C319.57,-823.59 243.8,-796.57 232,-789 221.67,-782.37 211.8,-773.2 203.73,-764.64"/>
<polygon fill="black" stroke="black" points="206.17,-762.11 196.86,-757.05 200.98,-766.81 206.17,-762.11"/>
</g>
<!-- index -->
<g id="node7" class="node">
<title>index</title>
<ellipse fill="none" stroke="black" cx="409" cy="-740" rx="36.29" ry="18"/>
<text text-anchor="middle" x="409" y="-736.3" font-family="Times,serif" font-size="14.00">index</text>
</g>
<!-- photon_data&#45;&gt;index -->
<g id="edge8" class="edge">
<title>photon_data&#45;&gt;index</title>
<path fill="none" stroke="black" d="M407.3,-836.84C407.63,-818.67 408.14,-789.72 408.52,-768.39"/>
<polygon fill="black" stroke="black" points="412.02,-768.38 408.69,-758.32 405.02,-768.26 412.02,-768.38"/>
</g>
<!-- bg_period&#45;&gt;mburst -->
<g id="edge3" class="edge">
<title>bg_period&#45;&gt;mburst</title>
<path fill="none" stroke="black" d="M540.2,-873C528.62,-894.38 506.03,-929 475,-943.5 420.24,-969.09 392.62,-971.4 339,-943.5 314.43,-930.72 297.58,-903.25 287.72,-882.28"/>
<polygon fill="black" stroke="black" points="290.81,-880.62 283.56,-872.89 284.41,-883.45 290.81,-880.62"/>
</g>
<!-- dwell_ph_counts_bg -->
<g id="node19" class="node">
<title>dwell_ph_counts_bg</title>
<ellipse fill="none" stroke="black" cx="885" cy="-165" rx="102.88" ry="18"/>
<text text-anchor="middle" x="885" y="-161.3" font-family="Times,serif" font-size="14.00">dwell_ph_counts_bg</text>
</g>
<!-- bg_period&#45;&gt;dwell_ph_counts_bg -->
<g id="edge35" class="edge">
<title>bg_period&#45;&gt;dwell_ph_counts_bg</title>
<path fill="none" stroke="black" d="M601.66,-848.21C763.38,-828.99 1242,-760.73 1242,-626 1242,-626 1242,-626 1242,-394 1242,-330.1 1232.34,-304.92 1185,-262 1129.33,-211.53 1047,-187.59 982.66,-176.23"/>
<polygon fill="black" stroke="black" points="982.94,-172.73 972.5,-174.51 981.78,-179.63 982.94,-172.73"/>
</g>
<!-- mburst&#45;&gt;times -->
<g id="edge9" class="edge">
<title>mburst&#45;&gt;times</title>
<path fill="none" stroke="black" d="M277,-836.84C277,-818.67 277,-789.72 277,-768.39"/>
<polygon fill="black" stroke="black" points="280.5,-768.32 277,-758.32 273.5,-768.32 280.5,-768.32"/>
</g>
<!-- mburst&#45;&gt;nanos -->
<g id="edge10" class="edge">
<title>mburst&#45;&gt;nanos</title>
<path fill="none" stroke="black" d="M263.68,-837.81C248,-818.76 221.83,-786.96 203.78,-765.03"/>
<polygon fill="black" stroke="black" points="206.36,-762.66 197.3,-757.16 200.95,-767.11 206.36,-762.66"/>
</g>
<!-- mburst&#45;&gt;index -->
<g id="edge11" class="edge">
<title>mburst&#45;&gt;index</title>
<path fill="none" stroke="black" d="M295.08,-838.52C318.01,-818.89 357.7,-784.91 383.66,-762.7"/>
<polygon fill="black" stroke="black" points="386.24,-765.09 391.56,-755.93 381.69,-759.77 386.24,-765.09"/>
</g>
<!-- model -->
<g id="node8" class="node">
<title>model</title>
<ellipse fill="none" stroke="black" cx="342" cy="-625" rx="38.99" ry="18"/>
<text text-anchor="middle" x="342" y="-621.3" font-family="Times,serif" font-size="14.00">model</text>
</g>
<!-- times&#45;&gt;model -->
<g id="edge4" class="edge">
<title>times&#45;&gt;model</title>
<path fill="none" stroke="black" d="M286.59,-722.33C297.34,-703.63 314.91,-673.1 327.37,-651.43"/>
<polygon fill="black" stroke="black" points="330.42,-653.16 332.37,-642.74 324.35,-649.67 330.42,-653.16"/>
</g>
<!-- path -->
<g id="node9" class="node">
<title>path</title>
<ellipse fill="none" stroke="black" cx="342" cy="-510" rx="31.7" ry="18"/>
<text text-anchor="middle" x="342" y="-506.3" font-family="Times,serif" font-size="14.00">path</text>
</g>
<!-- times&#45;&gt;path -->
<g id="edge12" class="edge">
<title>times&#45;&gt;path</title>
<path fill="none" stroke="black" d="M275.78,-721.71C274.57,-695.89 274.61,-646.09 289,-607 292.19,-598.32 296.19,-597.9 301,-590 311.51,-572.73 321.99,-552.47 329.72,-536.8"/>
<polygon fill="black" stroke="black" points="332.92,-538.22 334.16,-527.7 326.63,-535.15 332.92,-538.22"/>
</g>
<!-- scale -->
<g id="node10" class="node">
<title>scale</title>
<ellipse fill="none" stroke="black" cx="258" cy="-510" rx="34.39" ry="18"/>
<text text-anchor="middle" x="258" y="-506.3" font-family="Times,serif" font-size="14.00">scale</text>
</g>
<!-- times&#45;&gt;scale -->
<g id="edge13" class="edge">
<title>times&#45;&gt;scale</title>
<path fill="none" stroke="black" d="M271.74,-722.09C267.96,-709.09 263.17,-690.59 261,-674 254.81,-626.6 255.48,-570.79 256.66,-538.3"/>
<polygon fill="black" stroke="black" points="260.16,-538.36 257.06,-528.22 253.16,-538.07 260.16,-538.36"/>
</g>
<!-- dwell_dur -->
<g id="node15" class="node">
<title>dwell_dur</title>
<ellipse fill="none" stroke="black" cx="454" cy="-280" rx="55.79" ry="18"/>
<text text-anchor="middle" x="454" y="-276.3" font-family="Times,serif" font-size="14.00">dwell_dur</text>
</g>
<!-- times&#45;&gt;dwell_dur -->
<g id="edge25" class="edge">
<title>times&#45;&gt;dwell_dur</title>
<path fill="none" stroke="black" d="M260.39,-723.69C204.92,-670.71 34.55,-492.2 126,-377 184.45,-303.37 242.24,-356.95 332,-329 359.5,-320.44 389.63,-308.61 413.07,-298.84"/>
<polygon fill="black" stroke="black" points="414.49,-302.03 422.35,-294.93 411.77,-295.58 414.49,-302.03"/>
</g>
<!-- nanohist -->
<g id="node11" class="node">
<title>nanohist</title>
<ellipse fill="none" stroke="black" cx="191" cy="-395" rx="50.89" ry="18"/>
<text text-anchor="middle" x="191" y="-391.3" font-family="Times,serif" font-size="14.00">nanohist</text>
</g>
<!-- nanos&#45;&gt;nanohist -->
<g id="edge18" class="edge">
<title>nanos&#45;&gt;nanohist</title>
<path fill="none" stroke="black" d="M184.35,-721.99C185.48,-666.67 189.05,-491.54 190.44,-423.45"/>
<polygon fill="black" stroke="black" points="193.95,-423.18 190.65,-413.11 186.95,-423.04 193.95,-423.18"/>
</g>
<!-- dwell_nano_mean -->
<g id="node18" class="node">
<title>dwell_nano_mean</title>
<ellipse fill="none" stroke="black" cx="470" cy="-50" rx="92.08" ry="18"/>
<text text-anchor="middle" x="470" y="-46.3" font-family="Times,serif" font-size="14.00">dwell_nano_mean</text>
</g>
<!-- nanos&#45;&gt;dwell_nano_mean -->
<g id="edge29" class="edge">
<title>nanos&#45;&gt;dwell_nano_mean</title>
<path fill="none" stroke="black" d="M170.07,-723.13C140.47,-687.72 74,-598.46 74,-511 74,-511 74,-511 74,-279 74,-216.37 48.31,-185.73 90,-139 127.81,-96.62 279.22,-72 379.12,-60.06"/>
<polygon fill="black" stroke="black" points="379.7,-63.51 389.23,-58.87 378.89,-56.56 379.7,-63.51"/>
</g>
<!-- irf_thresh -->
<g id="node6" class="node">
<title>irf_thresh</title>
<ellipse fill="none" stroke="black" cx="72" cy="-740" rx="55.79" ry="18"/>
<text text-anchor="middle" x="72" y="-736.3" font-family="Times,serif" font-size="14.00">irf_thresh</text>
</g>
<!-- irf_thresh&#45;&gt;dwell_nano_mean -->
<g id="edge30" class="edge">
<title>irf_thresh&#45;&gt;dwell_nano_mean</title>
<path fill="none" stroke="black" d="M67.44,-721.98C57.75,-684.28 36,-590.75 36,-511 36,-511 36,-511 36,-279 36,-215.63 18.7,-184.31 63,-139 105.96,-95.06 271.37,-70.67 377.64,-59.24"/>
<polygon fill="black" stroke="black" points="378.16,-62.71 387.73,-58.18 377.42,-55.75 378.16,-62.71"/>
</g>
<!-- index&#45;&gt;model -->
<g id="edge5" class="edge">
<title>index&#45;&gt;model</title>
<path fill="none" stroke="black" d="M399.11,-722.33C388.03,-703.63 369.93,-673.1 357.08,-651.43"/>
<polygon fill="black" stroke="black" points="360.04,-649.56 351.93,-642.74 354.02,-653.13 360.04,-649.56"/>
</g>
<!-- index&#45;&gt;path -->
<g id="edge14" class="edge">
<title>index&#45;&gt;path</title>
<path fill="none" stroke="black" d="M415.44,-722.16C424.25,-696.49 437.4,-646.39 423,-607 411.95,-576.76 386.7,-549.46 367.3,-531.78"/>
<polygon fill="black" stroke="black" points="369.49,-529.04 359.68,-525.03 364.85,-534.28 369.49,-529.04"/>
</g>
<!-- index&#45;&gt;scale -->
<g id="edge15" class="edge">
<title>index&#45;&gt;scale</title>
<path fill="none" stroke="black" d="M412.98,-721.83C418.35,-693.85 424.18,-638.4 395,-607 366.1,-575.9 335.41,-614.86 301,-590 283.54,-577.39 272.41,-555.43 265.86,-537.86"/>
<polygon fill="black" stroke="black" points="269.08,-536.45 262.52,-528.13 262.46,-538.73 269.08,-536.45"/>
</g>
<!-- dwell_ph_counts -->
<g id="node16" class="node">
<title>dwell_ph_counts</title>
<ellipse fill="none" stroke="black" cx="1089" cy="-280" rx="87.18" ry="18"/>
<text text-anchor="middle" x="1089" y="-276.3" font-family="Times,serif" font-size="14.00">dwell_ph_counts</text>
</g>
<!-- index&#45;&gt;dwell_ph_counts -->
<g id="edge27" class="edge">
<title>index&#45;&gt;dwell_ph_counts</title>
<path fill="none" stroke="black" d="M429.72,-725.04C526.79,-659.67 936.78,-383.53 1056.22,-303.08"/>
<polygon fill="black" stroke="black" points="1058.29,-305.9 1064.63,-297.41 1054.38,-300.1 1058.29,-305.9"/>
</g>
<!-- index&#45;&gt;dwell_nano_mean -->
<g id="edge31" class="edge">
<title>index&#45;&gt;dwell_nano_mean</title>
<path fill="none" stroke="black" d="M444.96,-736.61C600.07,-725.34 1204,-671.19 1204,-511 1204,-511 1204,-511 1204,-279 1204,-145.71 757,-81.6 560.66,-59.87"/>
<polygon fill="black" stroke="black" points="560.97,-56.39 550.65,-58.78 560.21,-63.35 560.97,-56.39"/>
</g>
<!-- model&#45;&gt;path -->
<g id="edge16" class="edge">
<title>model&#45;&gt;path</title>
<path fill="none" stroke="black" d="M342,-606.84C342,-588.67 342,-559.72 342,-538.39"/>
<polygon fill="black" stroke="black" points="345.5,-538.32 342,-528.32 338.5,-538.32 345.5,-538.32"/>
</g>
<!-- model&#45;&gt;scale -->
<g id="edge17" class="edge">
<title>model&#45;&gt;scale</title>
<path fill="none" stroke="black" d="M321.43,-609.47C314.42,-603.89 306.88,-597.14 301,-590 287.85,-574.02 276.8,-553.42 269.19,-537.26"/>
<polygon fill="black" stroke="black" points="272.24,-535.51 264.91,-527.86 265.86,-538.41 272.24,-535.51"/>
</g>
<!-- path&#45;&gt;nanohist -->
<g id="edge19" class="edge">
<title>path&#45;&gt;nanohist</title>
<path fill="none" stroke="black" d="M323.48,-495.14C297.71,-475.86 250.77,-440.73 220.24,-417.88"/>
<polygon fill="black" stroke="black" points="222.2,-414.98 212.1,-411.79 218,-420.58 222.2,-414.98"/>
</g>
<!-- trans_locs -->
<g id="node12" class="node">
<title>trans_locs</title>
<ellipse fill="none" stroke="black" cx="454" cy="-395" rx="57.69" ry="18"/>
<text text-anchor="middle" x="454" y="-391.3" font-family="Times,serif" font-size="14.00">trans_locs</text>
</g>
<!-- path&#45;&gt;trans_locs -->
<g id="edge39" class="edge">
<title>path&#45;&gt;trans_locs</title>
<path fill="none" stroke="black" d="M357.1,-493.76C375.99,-474.71 408.51,-441.89 430.62,-419.59"/>
<polygon fill="black" stroke="black" points="433.13,-422.03 437.68,-412.46 428.16,-417.1 433.13,-422.03"/>
</g>
<!-- burst_type -->
<g id="node13" class="node">
<title>burst_type</title>
<ellipse fill="none" stroke="black" cx="260" cy="-165" rx="60.39" ry="18"/>
<text text-anchor="middle" x="260" y="-161.3" font-family="Times,serif" font-size="14.00">burst_type</text>
</g>
<!-- path&#45;&gt;burst_type -->
<g id="edge21" class="edge">
<title>path&#45;&gt;burst_type</title>
<path fill="none" stroke="black" d="M342.34,-491.71C343.12,-442.84 343.91,-304.44 329,-262 319.44,-234.8 299.59,-208.54 283.63,-190.38"/>
<polygon fill="black" stroke="black" points="285.92,-187.7 276.62,-182.64 280.73,-192.4 285.92,-187.7"/>
</g>
<!-- burst_state_counts -->
<g id="node14" class="node">
<title>burst_state_counts</title>
<ellipse fill="none" stroke="black" cx="221" cy="-280" rx="98.58" ry="18"/>
<text text-anchor="middle" x="221" y="-276.3" font-family="Times,serif" font-size="14.00">burst_state_counts</text>
</g>
<!-- path&#45;&gt;burst_state_counts -->
<g id="edge22" class="edge">
<title>path&#45;&gt;burst_state_counts</title>
<path fill="none" stroke="black" d="M333.3,-492.6C312.56,-453.53 260.1,-354.68 234.91,-307.22"/>
<polygon fill="black" stroke="black" points="237.89,-305.37 230.11,-298.17 231.71,-308.65 237.89,-305.37"/>
</g>
<!-- dwell_state -->
<g id="node17" class="node">
<title>dwell_state</title>
<ellipse fill="none" stroke="black" cx="920" cy="-280" rx="63.89" ry="18"/>
<text text-anchor="middle" x="920" y="-276.3" font-family="Times,serif" font-size="14.00">dwell_state</text>
</g>
<!-- path&#45;&gt;dwell_state -->
<g id="edge40" class="edge">
<title>path&#45;&gt;dwell_state</title>
<path fill="none" stroke="black" d="M370.33,-501.49C448.63,-480.19 673.7,-415.3 847,-329 861.78,-321.64 877.2,-311.86 890.03,-303.04"/>
<polygon fill="black" stroke="black" points="892.28,-305.74 898.46,-297.14 888.26,-300.01 892.28,-305.74"/>
</g>
<!-- scale&#45;&gt;nanohist -->
<g id="edge20" class="edge">
<title>scale&#45;&gt;nanohist</title>
<path fill="none" stroke="black" d="M248.11,-492.33C237.03,-473.63 218.93,-443.1 206.08,-421.43"/>
<polygon fill="black" stroke="black" points="209.04,-419.56 200.93,-412.74 203.02,-423.13 209.04,-419.56"/>
</g>
<!-- scale&#45;&gt;dwell_nano_mean -->
<g id="edge32" class="edge">
<title>scale&#45;&gt;dwell_nano_mean</title>
<path fill="none" stroke="black" d="M260.13,-491.7C263.64,-460.11 269.04,-394.72 256,-377 215.53,-321.97 150.05,-384.33 110,-329 85.24,-294.8 83.93,-172.21 110,-139 143,-96.96 284.76,-72.43 380.24,-60.38"/>
<polygon fill="black" stroke="black" points="380.7,-63.85 390.19,-59.15 379.84,-56.9 380.7,-63.85"/>
</g>
<!-- trans_locs&#45;&gt;burst_type -->
<g id="edge23" class="edge">
<title>trans_locs&#45;&gt;burst_type</title>
<path fill="none" stroke="black" d="M429.37,-378.55C412.07,-366.7 389.37,-349.01 374,-329 354.13,-303.12 361.6,-289.47 344,-262 326.85,-235.24 302.54,-208.32 284.47,-189.82"/>
<polygon fill="black" stroke="black" points="286.68,-187.08 277.16,-182.44 281.71,-192 286.68,-187.08"/>
</g>
<!-- trans_locs&#45;&gt;burst_state_counts -->
<g id="edge24" class="edge">
<title>trans_locs&#45;&gt;burst_state_counts</title>
<path fill="none" stroke="black" d="M424.02,-379.46C383.2,-359.66 309.91,-324.12 263.45,-301.59"/>
<polygon fill="black" stroke="black" points="264.78,-298.34 254.25,-297.13 261.72,-304.64 264.78,-298.34"/>
</g>
<!-- trans_locs&#45;&gt;dwell_dur -->
<g id="edge26" class="edge">
<title>trans_locs&#45;&gt;dwell_dur</title>
<path fill="none" stroke="black" d="M454,-376.84C454,-358.67 454,-329.72 454,-308.39"/>
<polygon fill="black" stroke="black" points="457.5,-308.32 454,-298.32 450.5,-308.32 457.5,-308.32"/>
</g>
<!-- trans_locs&#45;&gt;dwell_ph_counts -->
<g id="edge28" class="edge">
<title>trans_locs&#45;&gt;dwell_ph_counts</title>
<path fill="none" stroke="black" d="M511.96,-393.47C612.16,-391.14 823.29,-379.98 993,-329 1014.12,-322.65 1036.24,-311.91 1053.91,-302.2"/>
<polygon fill="black" stroke="black" points="1055.72,-305.2 1062.72,-297.24 1052.29,-299.1 1055.72,-305.2"/>
</g>
<!-- trans_locs&#45;&gt;dwell_state -->
<g id="edge41" class="edge">
<title>trans_locs&#45;&gt;dwell_state</title>
<path fill="none" stroke="black" d="M511.27,-391.95C589.59,-387.51 733.32,-373.46 847,-329 862.99,-322.75 879.11,-312.64 892.13,-303.31"/>
<polygon fill="black" stroke="black" points="894.24,-306.1 900.19,-297.33 890.07,-300.47 894.24,-306.1"/>
</g>
<!-- trans_locs&#45;&gt;dwell_nano_mean -->
<g id="edge33" class="edge">
<title>trans_locs&#45;&gt;dwell_nano_mean</title>
<path fill="none" stroke="black" d="M430.67,-378.27C415.66,-366.65 397.43,-349.35 389,-329 377.6,-301.49 383.57,-291.28 389,-262 401.89,-192.47 436.78,-116.26 456.3,-77.24"/>
<polygon fill="black" stroke="black" points="459.51,-78.65 460.91,-68.15 453.27,-75.48 459.51,-78.65"/>
</g>
<!-- burst_dwell_num -->
<g id="node20" class="node">
<title>burst_dwell_num</title>
<ellipse fill="none" stroke="black" cx="618" cy="-280" rx="89.88" ry="18"/>
<text text-anchor="middle" x="618" y="-276.3" font-family="Times,serif" font-size="14.00">burst_dwell_num</text>
</g>
<!-- trans_locs&#45;&gt;burst_dwell_num -->
<g id="edge42" class="edge">
<title>trans_locs&#45;&gt;burst_dwell_num</title>
<path fill="none" stroke="black" d="M476.8,-378.29C505.04,-358.83 553.33,-325.56 585.46,-303.42"/>
<polygon fill="black" stroke="black" points="587.81,-306.05 594.06,-297.5 583.84,-300.29 587.81,-306.05"/>
</g>
<!-- dwell_pos -->
<g id="node21" class="node">
<title>dwell_pos</title>
<ellipse fill="none" stroke="black" cx="782" cy="-280" rx="55.79" ry="18"/>
<text text-anchor="middle" x="782" y="-276.3" font-family="Times,serif" font-size="14.00">dwell_pos</text>
</g>
<!-- trans_locs&#45;&gt;dwell_pos -->
<g id="edge43" class="edge">
<title>trans_locs&#45;&gt;dwell_pos</title>
<path fill="none" stroke="black" d="M506.44,-387.25C561.04,-378.82 648.04,-361.4 717,-329 731,-322.42 744.99,-312.61 756.39,-303.57"/>
<polygon fill="black" stroke="black" points="758.68,-306.22 764.2,-297.18 754.24,-300.8 758.68,-306.22"/>
</g>
<!-- burst_state_counts&#45;&gt;burst_type -->
<g id="edge38" class="edge">
<title>burst_state_counts&#45;&gt;burst_type</title>
<path fill="none" stroke="black" d="M226.92,-261.84C233.29,-243.4 243.48,-213.85 250.87,-192.44"/>
<polygon fill="black" stroke="black" points="254.19,-193.55 254.15,-182.95 247.58,-191.26 254.19,-193.55"/>
</g>
<!-- dwell_dur&#45;&gt;dwell_ph_counts_bg -->
<g id="edge36" class="edge">
<title>dwell_dur&#45;&gt;dwell_ph_counts_bg</title>
<path fill="none" stroke="black" d="M496.11,-267.96C571.75,-248.13 731.07,-206.36 820.53,-182.9"/>
<polygon fill="black" stroke="black" points="821.51,-186.27 830.29,-180.34 819.73,-179.49 821.51,-186.27"/>
</g>
<!-- dwell_ph_counts&#45;&gt;dwell_ph_counts_bg -->
<g id="edge37" class="edge">
<title>dwell_ph_counts&#45;&gt;dwell_ph_counts_bg</title>
<path fill="none" stroke="black" d="M1059.77,-262.81C1023.9,-242.94 962.96,-209.18 923.35,-187.24"/>
<polygon fill="black" stroke="black" points="924.95,-184.13 914.5,-182.34 921.56,-190.25 924.95,-184.13"/>
</g>
<!-- dwell_E -->
<g id="node22" class="node">
<title>dwell_E</title>
<ellipse fill="none" stroke="black" cx="1019" cy="-50" rx="46.59" ry="18"/>
<text text-anchor="middle" x="1019" y="-46.3" font-family="Times,serif" font-size="14.00">dwell_E</text>
</g>
<!-- dwell_ph_counts&#45;&gt;dwell_E -->
<g id="edge44" class="edge">
<title>dwell_ph_counts&#45;&gt;dwell_E</title>
<path fill="none" stroke="black" d="M1083.74,-261.86C1071.65,-222.48 1041.81,-125.3 1027.25,-77.88"/>
<polygon fill="black" stroke="black" points="1030.51,-76.56 1024.23,-68.02 1023.82,-78.61 1030.51,-76.56"/>
</g>
<!-- dwell_S -->
<g id="node23" class="node">
<title>dwell_S</title>
<ellipse fill="none" stroke="black" cx="1130" cy="-50" rx="46.29" ry="18"/>
<text text-anchor="middle" x="1130" y="-46.3" font-family="Times,serif" font-size="14.00">dwell_S</text>
</g>
<!-- dwell_ph_counts&#45;&gt;dwell_S -->
<g id="edge45" class="edge">
<title>dwell_ph_counts&#45;&gt;dwell_S</title>
<path fill="none" stroke="black" d="M1092.08,-261.86C1099.16,-222.48 1116.64,-125.3 1125.17,-77.88"/>
<polygon fill="black" stroke="black" points="1128.61,-78.49 1126.94,-68.02 1121.72,-77.25 1128.61,-78.49"/>
</g>
<!-- dwell_state&#45;&gt;dwell_nano_mean -->
<g id="edge34" class="edge">
<title>dwell_state&#45;&gt;dwell_nano_mean</title>
<path fill="none" stroke="black" d="M890.47,-264.04C812.38,-224.47 600.29,-117.01 510.76,-71.65"/>
<polygon fill="black" stroke="black" points="512.22,-68.47 501.72,-67.07 509.06,-74.71 512.22,-68.47"/>
</g>
<!-- dwell_E_corr -->
<g id="node24" class="node">
<title>dwell_E_corr</title>
<ellipse fill="none" stroke="black" cx="727" cy="-50" rx="70.39" ry="18"/>
<text text-anchor="middle" x="727" y="-46.3" font-family="Times,serif" font-size="14.00">dwell_E_corr</text>
</g>
<!-- dwell_ph_counts_bg&#45;&gt;dwell_E_corr -->
<g id="edge46" class="edge">
<title>dwell_ph_counts_bg&#45;&gt;dwell_E_corr</title>
<path fill="none" stroke="black" d="M861.69,-147.33C834.15,-127.63 788.23,-94.79 757.79,-73.02"/>
<polygon fill="black" stroke="black" points="759.81,-70.16 749.64,-67.19 755.74,-75.86 759.81,-70.16"/>
</g>
<!-- dwell_S_corr -->
<g id="node25" class="node">
<title>dwell_S_corr</title>
<ellipse fill="none" stroke="black" cx="885" cy="-50" rx="69.59" ry="18"/>
<text text-anchor="middle" x="885" y="-46.3" font-family="Times,serif" font-size="14.00">dwell_S_corr</text>
</g>
<!-- dwell_ph_counts_bg&#45;&gt;dwell_S_corr -->
<g id="edge47" class="edge">
<title>dwell_ph_counts_bg&#45;&gt;dwell_S_corr</title>
<path fill="none" stroke="black" d="M885,-146.84C885,-128.67 885,-99.72 885,-78.39"/>
<polygon fill="black" stroke="black" points="888.5,-78.32 885,-68.32 881.5,-78.32 888.5,-78.32"/>
</g>
</g>
</svg>
