<?xml version="1.0" encoding="UTF-8" standalone="no"?>
<!DOCTYPE svg PUBLIC "-//W3C//DTD SVG 1.1//EN"
 "http://www.w3.org/Graphics/SVG/1.1/DTD/svg11.dtd">
<!-- Generated by graphviz version 2.43.0 (0)
 -->
<!-- Title: G Pages: 1 -->
<svg width="1094pt" height="972pt"
 viewBox="0.00 0.00 1094.00 971.71" xmlns="http://www.w3.org/2000/svg" xmlns:xlink="http://www.w3.org/1999/xlink">
<g id="graph0" class="graph" transform="scale(1 1) rotate(0) translate(4 967.71)">
<title>G</title>
<polygon fill="white" stroke="transparent" points="-4,4 -4,-967.71 1090,-967.71 1090,4 -4,4"/>
<g id="clust1" class="cluster">
<title>cluster0</title>
<polygon fill="none" stroke="black" points="315,-829 315,-904 704,-904 704,-829 315,-829"/>
<text text-anchor="middle" x="509.5" y="-888.8" font-family="Times,serif" font-size="14.00">fretbursts.Data</text>
</g>
<g id="clust4" class="cluster">
<title>cluster1</title>
<polygon fill="none" stroke="black" points="98,-714 98,-789 411,-789 411,-714 98,-714"/>
<text text-anchor="middle" x="254.5" y="-773.8" font-family="Times,serif" font-size="14.00">BurstData</text>
</g>
<g id="clust5" class="cluster">
<title>cluster2</title>
<polygon fill="none" stroke="black" points="473,-714 473,-789 568,-789 568,-714 473,-714"/>
<text text-anchor="middle" x="520.5" y="-773.8" font-family="Times,serif" font-size="14.00">H2MM_list</text>
</g>
<g id="clust16" class="cluster">
<title>cluster3</title>
<polygon fill="none" stroke="black" points="88,-8 88,-674 1044,-674 1044,-8 88,-8"/>
<text text-anchor="middle" x="566" y="-658.8" font-family="Times,serif" font-size="14.00">H2MM_result</text>
</g>
<g id="clust17" class="cluster">
<title>cluster4</title>
<polygon fill="none" stroke="black" points="96,-16 96,-590 1036,-590 1036,-16 96,-16"/>
<text text-anchor="middle" x="566" y="-574.8" font-family="Times,serif" font-size="14.00">Dynamically calculated parameters</text>
</g>
<g id="clust18" class="cluster">
<title>cluster5</title>
<polygon fill="none" stroke="black" points="413,-484 413,-559 579,-559 579,-484 413,-484"/>
<text text-anchor="middle" x="496" y="-543.8" font-family="Times,serif" font-size="14.00">Viterbi Results</text>
</g>
<g id="clust20" class="cluster">
<title>cluster6</title>
<polygon fill="none" stroke="black" points="214,-24 214,-444 1028,-444 1028,-24 214,-24"/>
<text text-anchor="middle" x="621" y="-428.8" font-family="Times,serif" font-size="14.00">Dwell base parameters</text>
</g>
<!-- photon_data -->
<g id="node1" class="node">
<title>photon_data</title>
<ellipse fill="none" stroke="black" cx="497" cy="-855" rx="67.69" ry="18"/>
<text text-anchor="middle" x="497" y="-851.3" font-family="Times,serif" font-size="14.00">photon_data</text>
</g>
<!-- bg_period -->
<g id="node2" class="node">
<title>bg_period</title>
<ellipse fill="none" stroke="black" cx="639" cy="-855" rx="56.59" ry="18"/>
<text text-anchor="middle" x="639" y="-851.3" font-family="Times,serif" font-size="14.00">bg_period</text>
</g>
<!-- photon_data&#45;&gt;bg_period -->
<g id="edge1" class="edge">
<title>photon_data&#45;&gt;bg_period</title>
<path fill="none" stroke="black" d="M564.67,-855C567.16,-855 569.65,-855 572.14,-855"/>
<polygon fill="black" stroke="black" points="572.38,-858.5 582.38,-855 572.38,-851.5 572.38,-858.5"/>
</g>
<!-- mburst -->
<g id="node3" class="node">
<title>mburst</title>
<ellipse fill="none" stroke="black" cx="367" cy="-855" rx="44.39" ry="18"/>
<text text-anchor="middle" x="367" y="-851.3" font-family="Times,serif" font-size="14.00">mburst</text>
</g>
<!-- photon_data&#45;&gt;mburst -->
<g id="edge2" class="edge">
<title>photon_data&#45;&gt;mburst</title>
<path fill="none" stroke="black" d="M429.15,-855C426.66,-855 424.17,-855 421.68,-855"/>
<polygon fill="black" stroke="black" points="421.43,-851.5 411.43,-855 421.43,-858.5 421.43,-851.5"/>
</g>
<!-- times -->
<g id="node4" class="node">
<title>times</title>
<ellipse fill="none" stroke="black" cx="367" cy="-740" rx="36.29" ry="18"/>
<text text-anchor="middle" x="367" y="-736.3" font-family="Times,serif" font-size="14.00">times</text>
</g>
<!-- photon_data&#45;&gt;times -->
<g id="edge6" class="edge">
<title>photon_data&#45;&gt;times</title>
<path fill="none" stroke="black" d="M478.1,-837.57C455.35,-817.8 417.08,-784.53 391.93,-762.67"/>
<polygon fill="black" stroke="black" points="394.11,-759.93 384.26,-756.01 389.52,-765.21 394.11,-759.93"/>
</g>
<!-- nanos -->
<g id="node5" class="node">
<title>nanos</title>
<ellipse fill="none" stroke="black" cx="274" cy="-740" rx="38.19" ry="18"/>
<text text-anchor="middle" x="274" y="-736.3" font-family="Times,serif" font-size="14.00">nanos</text>
</g>
<!-- photon_data&#45;&gt;nanos -->
<g id="edge7" class="edge">
<title>photon_data&#45;&gt;nanos</title>
<path fill="none" stroke="black" d="M457.46,-840.32C409.57,-823.59 333.8,-796.57 322,-789 311.67,-782.37 301.8,-773.2 293.73,-764.64"/>
<polygon fill="black" stroke="black" points="296.17,-762.11 286.86,-757.05 290.98,-766.81 296.17,-762.11"/>
</g>
<!-- index -->
<g id="node7" class="node">
<title>index</title>
<ellipse fill="none" stroke="black" cx="520" cy="-740" rx="36.29" ry="18"/>
<text text-anchor="middle" x="520" y="-736.3" font-family="Times,serif" font-size="14.00">index</text>
</g>
<!-- photon_data&#45;&gt;index -->
<g id="edge8" class="edge">
<title>photon_data&#45;&gt;index</title>
<path fill="none" stroke="black" d="M500.49,-836.84C504.21,-818.56 510.15,-789.39 514.5,-768.02"/>
<polygon fill="black" stroke="black" points="517.98,-768.45 516.55,-757.95 511.13,-767.05 517.98,-768.45"/>
</g>
<!-- bg_period&#45;&gt;mburst -->
<g id="edge3" class="edge">
<title>bg_period&#45;&gt;mburst</title>
<path fill="none" stroke="black" d="M630.2,-873C618.62,-894.38 596.03,-929 565,-943.5 510.24,-969.09 482.62,-971.4 429,-943.5 404.43,-930.72 387.58,-903.25 377.72,-882.28"/>
<polygon fill="black" stroke="black" points="380.81,-880.62 373.56,-872.89 374.41,-883.45 380.81,-880.62"/>
</g>
<!-- dwell_ph_counts_bg -->
<g id="node17" class="node">
<title>dwell_ph_counts_bg</title>
<ellipse fill="none" stroke="black" cx="729" cy="-165" rx="102.88" ry="18"/>
<text text-anchor="middle" x="729" y="-161.3" font-family="Times,serif" font-size="14.00">dwell_ph_counts_bg</text>
</g>
<!-- bg_period&#45;&gt;dwell_ph_counts_bg -->
<g id="edge29" class="edge">
<title>bg_period&#45;&gt;dwell_ph_counts_bg</title>
<path fill="none" stroke="black" d="M694.26,-851.02C813.85,-841.28 1086,-800.01 1086,-626 1086,-626 1086,-626 1086,-394 1086,-330.1 1076.34,-304.92 1029,-262 973.33,-211.53 891,-187.59 826.66,-176.23"/>
<polygon fill="black" stroke="black" points="826.94,-172.73 816.5,-174.51 825.78,-179.63 826.94,-172.73"/>
</g>
<!-- mburst&#45;&gt;times -->
<g id="edge9" class="edge">
<title>mburst&#45;&gt;times</title>
<path fill="none" stroke="black" d="M367,-836.84C367,-818.67 367,-789.72 367,-768.39"/>
<polygon fill="black" stroke="black" points="370.5,-768.32 367,-758.32 363.5,-768.32 370.5,-768.32"/>
</g>
<!-- mburst&#45;&gt;nanos -->
<g id="edge10" class="edge">
<title>mburst&#45;&gt;nanos</title>
<path fill="none" stroke="black" d="M353.68,-837.81C338,-818.76 311.83,-786.96 293.78,-765.03"/>
<polygon fill="black" stroke="black" points="296.36,-762.66 287.3,-757.16 290.95,-767.11 296.36,-762.66"/>
</g>
<!-- mburst&#45;&gt;index -->
<g id="edge11" class="edge">
<title>mburst&#45;&gt;index</title>
<path fill="none" stroke="black" d="M387.32,-838.99C414.25,-819.1 461.88,-783.93 492.15,-761.57"/>
<polygon fill="black" stroke="black" points="494.6,-764.11 500.57,-755.35 490.44,-758.48 494.6,-764.11"/>
</g>
<!-- model -->
<g id="node8" class="node">
<title>model</title>
<ellipse fill="none" stroke="black" cx="453" cy="-625" rx="38.99" ry="18"/>
<text text-anchor="middle" x="453" y="-621.3" font-family="Times,serif" font-size="14.00">model</text>
</g>
<!-- times&#45;&gt;model -->
<g id="edge4" class="edge">
<title>times&#45;&gt;model</title>
<path fill="none" stroke="black" d="M379.32,-722.81C393.75,-703.85 417.81,-672.24 434.49,-650.32"/>
<polygon fill="black" stroke="black" points="437.43,-652.24 440.7,-642.16 431.86,-648 437.43,-652.24"/>
</g>
<!-- path -->
<g id="node9" class="node">
<title>path</title>
<ellipse fill="none" stroke="black" cx="453" cy="-510" rx="31.7" ry="18"/>
<text text-anchor="middle" x="453" y="-506.3" font-family="Times,serif" font-size="14.00">path</text>
</g>
<!-- times&#45;&gt;path -->
<g id="edge12" class="edge">
<title>times&#45;&gt;path</title>
<path fill="none" stroke="black" d="M362.22,-722.12C355.64,-695.04 347.22,-641.44 372,-607 384.49,-589.65 401.39,-604.61 417,-590 431.86,-576.1 441.05,-554.89 446.43,-537.95"/>
<polygon fill="black" stroke="black" points="449.88,-538.64 449.3,-528.06 443.15,-536.69 449.88,-538.64"/>
</g>
<!-- scale -->
<g id="node10" class="node">
<title>scale</title>
<ellipse fill="none" stroke="black" cx="537" cy="-510" rx="34.39" ry="18"/>
<text text-anchor="middle" x="537" y="-506.3" font-family="Times,serif" font-size="14.00">scale</text>
</g>
<!-- times&#45;&gt;scale -->
<g id="edge13" class="edge">
<title>times&#45;&gt;scale</title>
<path fill="none" stroke="black" d="M368.99,-721.78C373.05,-689.69 383.36,-622.58 400,-607 431,-577.99 459.59,-614.86 494,-590 511.46,-577.39 522.59,-555.43 529.14,-537.86"/>
<polygon fill="black" stroke="black" points="532.54,-538.73 532.48,-528.13 525.92,-536.45 532.54,-538.73"/>
</g>
<!-- dwell_dur -->
<g id="node13" class="node">
<title>dwell_dur</title>
<ellipse fill="none" stroke="black" cx="298" cy="-280" rx="55.79" ry="18"/>
<text text-anchor="middle" x="298" y="-276.3" font-family="Times,serif" font-size="14.00">dwell_dur</text>
</g>
<!-- times&#45;&gt;dwell_dur -->
<g id="edge20" class="edge">
<title>times&#45;&gt;dwell_dur</title>
<path fill="none" stroke="black" d="M346.07,-725.27C291.42,-687.97 144.98,-578.53 92,-444 81.09,-416.29 76,-402.11 92,-377 124.04,-326.72 190.01,-302.35 238.71,-290.82"/>
<polygon fill="black" stroke="black" points="239.52,-294.23 248.51,-288.62 237.99,-287.4 239.52,-294.23"/>
</g>
<!-- nanohist -->
<g id="node11" class="node">
<title>nanohist</title>
<ellipse fill="none" stroke="black" cx="155" cy="-395" rx="50.89" ry="18"/>
<text text-anchor="middle" x="155" y="-391.3" font-family="Times,serif" font-size="14.00">nanohist</text>
</g>
<!-- nanos&#45;&gt;nanohist -->
<g id="edge18" class="edge">
<title>nanos&#45;&gt;nanohist</title>
<path fill="none" stroke="black" d="M268.1,-721.99C248.83,-666.45 187.64,-490.09 164.23,-422.61"/>
<polygon fill="black" stroke="black" points="167.52,-421.41 160.94,-413.11 160.91,-423.71 167.52,-421.41"/>
</g>
<!-- dwell_nano_mean -->
<g id="node16" class="node">
<title>dwell_nano_mean</title>
<ellipse fill="none" stroke="black" cx="314" cy="-50" rx="92.08" ry="18"/>
<text text-anchor="middle" x="314" y="-46.3" font-family="Times,serif" font-size="14.00">dwell_nano_mean</text>
</g>
<!-- nanos&#45;&gt;dwell_nano_mean -->
<g id="edge24" class="edge">
<title>nanos&#45;&gt;dwell_nano_mean</title>
<path fill="none" stroke="black" d="M253.06,-724.79C195.3,-684.83 38,-570.53 38,-511 38,-511 38,-511 38,-279 38,-166.12 176.91,-98.65 257.64,-68.97"/>
<polygon fill="black" stroke="black" points="258.96,-72.22 267.18,-65.54 256.59,-65.63 258.96,-72.22"/>
</g>
<!-- irf_thresh -->
<g id="node6" class="node">
<title>irf_thresh</title>
<ellipse fill="none" stroke="black" cx="162" cy="-740" rx="55.79" ry="18"/>
<text text-anchor="middle" x="162" y="-736.3" font-family="Times,serif" font-size="14.00">irf_thresh</text>
</g>
<!-- irf_thresh&#45;&gt;dwell_nano_mean -->
<g id="edge25" class="edge">
<title>irf_thresh&#45;&gt;dwell_nano_mean</title>
<path fill="none" stroke="black" d="M139.81,-723.24C95.45,-689.69 0,-606.42 0,-511 0,-511 0,-511 0,-279 0,-211.74 23.44,-191.36 74,-147 122.09,-104.81 191.05,-79.84 242.72,-65.99"/>
<polygon fill="black" stroke="black" points="243.69,-69.35 252.48,-63.45 241.92,-62.58 243.69,-69.35"/>
</g>
<!-- index&#45;&gt;model -->
<g id="edge5" class="edge">
<title>index&#45;&gt;model</title>
<path fill="none" stroke="black" d="M510.11,-722.33C499.03,-703.63 480.93,-673.1 468.08,-651.43"/>
<polygon fill="black" stroke="black" points="471.04,-649.56 462.93,-642.74 465.02,-653.13 471.04,-649.56"/>
</g>
<!-- index&#45;&gt;path -->
<g id="edge14" class="edge">
<title>index&#45;&gt;path</title>
<path fill="none" stroke="black" d="M520.88,-721.7C521.61,-695.86 520.7,-646.04 506,-607 502.74,-598.35 498.81,-597.9 494,-590 483.49,-572.73 473.01,-552.47 465.28,-536.8"/>
<polygon fill="black" stroke="black" points="468.37,-535.15 460.84,-527.7 462.08,-538.22 468.37,-535.15"/>
</g>
<!-- index&#45;&gt;scale -->
<g id="edge15" class="edge">
<title>index&#45;&gt;scale</title>
<path fill="none" stroke="black" d="M524.6,-722.04C527.9,-709.01 532.09,-690.51 534,-674 539.5,-626.51 539.05,-570.73 538.1,-538.27"/>
<polygon fill="black" stroke="black" points="541.6,-538.08 537.77,-528.2 534.6,-538.31 541.6,-538.08"/>
</g>
<!-- dwell_ph_counts -->
<g id="node14" class="node">
<title>dwell_ph_counts</title>
<ellipse fill="none" stroke="black" cx="933" cy="-280" rx="87.18" ry="18"/>
<text text-anchor="middle" x="933" y="-276.3" font-family="Times,serif" font-size="14.00">dwell_ph_counts</text>
</g>
<!-- index&#45;&gt;dwell_ph_counts -->
<g id="edge22" class="edge">
<title>index&#45;&gt;dwell_ph_counts</title>
<path fill="none" stroke="black" d="M534.22,-723.23C595.3,-655.49 835.77,-388.83 910.63,-305.81"/>
<polygon fill="black" stroke="black" points="913.45,-307.91 917.54,-298.14 908.25,-303.22 913.45,-307.91"/>
</g>
<!-- index&#45;&gt;dwell_nano_mean -->
<g id="edge26" class="edge">
<title>index&#45;&gt;dwell_nano_mean</title>
<path fill="none" stroke="black" d="M556.71,-739.85C676.45,-740.54 1048,-725.42 1048,-511 1048,-511 1048,-511 1048,-279 1048,-145.71 601,-81.6 404.66,-59.87"/>
<polygon fill="black" stroke="black" points="404.97,-56.39 394.65,-58.78 404.21,-63.35 404.97,-56.39"/>
</g>
<!-- model&#45;&gt;path -->
<g id="edge16" class="edge">
<title>model&#45;&gt;path</title>
<path fill="none" stroke="black" d="M453,-606.84C453,-588.67 453,-559.72 453,-538.39"/>
<polygon fill="black" stroke="black" points="456.5,-538.32 453,-528.32 449.5,-538.32 456.5,-538.32"/>
</g>
<!-- model&#45;&gt;scale -->
<g id="edge17" class="edge">
<title>model&#45;&gt;scale</title>
<path fill="none" stroke="black" d="M473.57,-609.47C480.58,-603.89 488.12,-597.14 494,-590 507.15,-574.02 518.2,-553.42 525.81,-537.26"/>
<polygon fill="black" stroke="black" points="529.14,-538.41 530.09,-527.86 522.76,-535.51 529.14,-538.41"/>
</g>
<!-- path&#45;&gt;nanohist -->
<g id="edge19" class="edge">
<title>path&#45;&gt;nanohist</title>
<path fill="none" stroke="black" d="M435.55,-494.71C429.91,-490.71 423.45,-486.72 417,-484 330.66,-447.6 294.2,-485.11 210,-444 197.72,-438 186.03,-428.55 176.61,-419.6"/>
<polygon fill="black" stroke="black" points="178.83,-416.87 169.27,-412.3 173.89,-421.84 178.83,-416.87"/>
</g>
<!-- trans_locs -->
<g id="node12" class="node">
<title>trans_locs</title>
<ellipse fill="none" stroke="black" cx="462" cy="-395" rx="57.69" ry="18"/>
<text text-anchor="middle" x="462" y="-391.3" font-family="Times,serif" font-size="14.00">trans_locs</text>
</g>
<!-- path&#45;&gt;trans_locs -->
<g id="edge32" class="edge">
<title>path&#45;&gt;trans_locs</title>
<path fill="none" stroke="black" d="M454.37,-491.84C455.81,-473.67 458.12,-444.72 459.82,-423.39"/>
<polygon fill="black" stroke="black" points="463.32,-423.57 460.62,-413.32 456.34,-423.01 463.32,-423.57"/>
</g>
<!-- dwell_state -->
<g id="node15" class="node">
<title>dwell_state</title>
<ellipse fill="none" stroke="black" cx="764" cy="-280" rx="63.89" ry="18"/>
<text text-anchor="middle" x="764" y="-276.3" font-family="Times,serif" font-size="14.00">dwell_state</text>
</g>
<!-- path&#45;&gt;dwell_state -->
<g id="edge33" class="edge">
<title>path&#45;&gt;dwell_state</title>
<path fill="none" stroke="black" d="M471.99,-495.08C524.13,-456.85 669.89,-349.99 733.58,-303.3"/>
<polygon fill="black" stroke="black" points="736.01,-305.86 742,-297.13 731.87,-300.22 736.01,-305.86"/>
</g>
<!-- trans_locs&#45;&gt;dwell_dur -->
<g id="edge21" class="edge">
<title>trans_locs&#45;&gt;dwell_dur</title>
<path fill="none" stroke="black" d="M439.2,-378.29C410.56,-358.55 361.29,-324.61 329.18,-302.48"/>
<polygon fill="black" stroke="black" points="330.83,-299.37 320.61,-296.58 326.86,-305.13 330.83,-299.37"/>
</g>
<!-- trans_locs&#45;&gt;dwell_ph_counts -->
<g id="edge23" class="edge">
<title>trans_locs&#45;&gt;dwell_ph_counts</title>
<path fill="none" stroke="black" d="M506.31,-383.37C589.91,-363.31 771.24,-319.81 868.41,-296.5"/>
<polygon fill="black" stroke="black" points="869.5,-299.83 878.41,-294.1 867.87,-293.03 869.5,-299.83"/>
</g>
<!-- trans_locs&#45;&gt;dwell_state -->
<g id="edge34" class="edge">
<title>trans_locs&#45;&gt;dwell_state</title>
<path fill="none" stroke="black" d="M497.53,-380.71C552.18,-360.26 656.88,-321.08 717.49,-298.4"/>
<polygon fill="black" stroke="black" points="719.05,-301.56 727.19,-294.77 716.6,-295 719.05,-301.56"/>
</g>
<!-- trans_locs&#45;&gt;dwell_nano_mean -->
<g id="edge27" class="edge">
<title>trans_locs&#45;&gt;dwell_nano_mean</title>
<path fill="none" stroke="black" d="M420.11,-382.47C360.14,-365.02 254.61,-330.48 233,-298 184.9,-225.69 254.89,-122.51 292.61,-75.74"/>
<polygon fill="black" stroke="black" points="295.37,-77.89 299.02,-67.94 289.97,-73.44 295.37,-77.89"/>
</g>
<!-- burst_dwell_num -->
<g id="node18" class="node">
<title>burst_dwell_num</title>
<ellipse fill="none" stroke="black" cx="462" cy="-280" rx="89.88" ry="18"/>
<text text-anchor="middle" x="462" y="-276.3" font-family="Times,serif" font-size="14.00">burst_dwell_num</text>
</g>
<!-- trans_locs&#45;&gt;burst_dwell_num -->
<g id="edge35" class="edge">
<title>trans_locs&#45;&gt;burst_dwell_num</title>
<path fill="none" stroke="black" d="M462,-376.84C462,-358.67 462,-329.72 462,-308.39"/>
<polygon fill="black" stroke="black" points="465.5,-308.32 462,-298.32 458.5,-308.32 465.5,-308.32"/>
</g>
<!-- dwell_pos -->
<g id="node19" class="node">
<title>dwell_pos</title>
<ellipse fill="none" stroke="black" cx="626" cy="-280" rx="55.79" ry="18"/>
<text text-anchor="middle" x="626" y="-276.3" font-family="Times,serif" font-size="14.00">dwell_pos</text>
</g>
<!-- trans_locs&#45;&gt;dwell_pos -->
<g id="edge36" class="edge">
<title>trans_locs&#45;&gt;dwell_pos</title>
<path fill="none" stroke="black" d="M484.8,-378.29C513.44,-358.55 562.71,-324.61 594.82,-302.48"/>
<polygon fill="black" stroke="black" points="597.14,-305.13 603.39,-296.58 593.17,-299.37 597.14,-305.13"/>
</g>
<!-- dwell_dur&#45;&gt;dwell_ph_counts_bg -->
<g id="edge30" class="edge">
<title>dwell_dur&#45;&gt;dwell_ph_counts_bg</title>
<path fill="none" stroke="black" d="M340.11,-267.96C415.75,-248.13 575.07,-206.36 664.53,-182.9"/>
<polygon fill="black" stroke="black" points="665.51,-186.27 674.29,-180.34 663.73,-179.49 665.51,-186.27"/>
</g>
<!-- dwell_ph_counts&#45;&gt;dwell_ph_counts_bg -->
<g id="edge31" class="edge">
<title>dwell_ph_counts&#45;&gt;dwell_ph_counts_bg</title>
<path fill="none" stroke="black" d="M903.77,-262.81C867.9,-242.94 806.96,-209.18 767.35,-187.24"/>
<polygon fill="black" stroke="black" points="768.95,-184.13 758.5,-182.34 765.56,-190.25 768.95,-184.13"/>
</g>
<!-- dwell_E -->
<g id="node20" class="node">
<title>dwell_E</title>
<ellipse fill="none" stroke="black" cx="863" cy="-50" rx="46.59" ry="18"/>
<text text-anchor="middle" x="863" y="-46.3" font-family="Times,serif" font-size="14.00">dwell_E</text>
</g>
<!-- dwell_ph_counts&#45;&gt;dwell_E -->
<g id="edge37" class="edge">
<title>dwell_ph_counts&#45;&gt;dwell_E</title>
<path fill="none" stroke="black" d="M927.74,-261.86C915.65,-222.48 885.81,-125.3 871.25,-77.88"/>
<polygon fill="black" stroke="black" points="874.51,-76.56 868.23,-68.02 867.82,-78.61 874.51,-76.56"/>
</g>
<!-- dwell_S -->
<g id="node21" class="node">
<title>dwell_S</title>
<ellipse fill="none" stroke="black" cx="974" cy="-50" rx="46.29" ry="18"/>
<text text-anchor="middle" x="974" y="-46.3" font-family="Times,serif" font-size="14.00">dwell_S</text>
</g>
<!-- dwell_ph_counts&#45;&gt;dwell_S -->
<g id="edge38" class="edge">
<title>dwell_ph_counts&#45;&gt;dwell_S</title>
<path fill="none" stroke="black" d="M936.08,-261.86C943.16,-222.48 960.64,-125.3 969.17,-77.88"/>
<polygon fill="black" stroke="black" points="972.61,-78.49 970.94,-68.02 965.72,-77.25 972.61,-78.49"/>
</g>
<!-- dwell_state&#45;&gt;dwell_nano_mean -->
<g id="edge28" class="edge">
<title>dwell_state&#45;&gt;dwell_nano_mean</title>
<path fill="none" stroke="black" d="M734.47,-264.04C656.38,-224.47 444.29,-117.01 354.76,-71.65"/>
<polygon fill="black" stroke="black" points="356.22,-68.47 345.72,-67.07 353.06,-74.71 356.22,-68.47"/>
</g>
<!-- dwell_E_corr -->
<g id="node22" class="node">
<title>dwell_E_corr</title>
<ellipse fill="none" stroke="black" cx="571" cy="-50" rx="70.39" ry="18"/>
<text text-anchor="middle" x="571" y="-46.3" font-family="Times,serif" font-size="14.00">dwell_E_corr</text>
</g>
<!-- dwell_ph_counts_bg&#45;&gt;dwell_E_corr -->
<g id="edge39" class="edge">
<title>dwell_ph_counts_bg&#45;&gt;dwell_E_corr</title>
<path fill="none" stroke="black" d="M705.69,-147.33C678.15,-127.63 632.23,-94.79 601.79,-73.02"/>
<polygon fill="black" stroke="black" points="603.81,-70.16 593.64,-67.19 599.74,-75.86 603.81,-70.16"/>
</g>
<!-- dwell_S_corr -->
<g id="node23" class="node">
<title>dwell_S_corr</title>
<ellipse fill="none" stroke="black" cx="729" cy="-50" rx="69.59" ry="18"/>
<text text-anchor="middle" x="729" y="-46.3" font-family="Times,serif" font-size="14.00">dwell_S_corr</text>
</g>
<!-- dwell_ph_counts_bg&#45;&gt;dwell_S_corr -->
<g id="edge40" class="edge">
<title>dwell_ph_counts_bg&#45;&gt;dwell_S_corr</title>
<path fill="none" stroke="black" d="M729,-146.84C729,-128.67 729,-99.72 729,-78.39"/>
<polygon fill="black" stroke="black" points="732.5,-78.32 729,-68.32 725.5,-78.32 732.5,-78.32"/>
</g>
</g>
</svg>
